<svg version="1.1" viewBox="0.0 0.0 647.9790026246719 223.73753280839895" fill="none" stroke="none" stroke-linecap="square" stroke-miterlimit="10" xmlns:xlink="http://www.w3.org/1999/xlink" xmlns="http://www.w3.org/2000/svg"><clipPath id="p.0"><path d="m0 0l647.979 0l0 223.73753l-647.979 0l0 -223.73753z" clip-rule="nonzero"/></clipPath><g clip-path="url(#p.0)"><path fill="#000000" fill-opacity="0.0" d="m0 0l647.979 0l0 223.73753l-647.979 0z" fill-rule="evenodd"/><path fill="#ffffff" d="m226.90552 123.49344l199.811 0l0 96.031494l-199.811 0z" fill-rule="evenodd"/><path stroke="#000000" stroke-width="2.0" stroke-linejoin="round" stroke-linecap="butt" d="m226.90552 123.49344l199.811 0l0 96.031494l-199.811 0z" fill-rule="evenodd"/><path fill="#000000" d="m237.23364 142.70918l0 -14.3125l1.765625 0l0 8.15625l4.15625 -4.21875l2.265625 0l-3.953125 3.84375l4.359375 6.53125l-2.171875 0l-3.421875 -5.296875l-1.234375 1.1875l0 4.109375l-1.765625 0zm17.09375 -3.34375l1.8125 0.234375q-0.421875 1.578125 -1.59375 2.46875q-1.15625 0.875 -2.96875 0.875q-2.265625 0 -3.609375 -1.390625q-1.328125 -1.40625 -1.328125 -3.9375q0 -2.625 1.34375 -4.0625q1.34375 -1.453125 3.5 -1.453125q2.078125 0 3.390625 1.421875q1.328125 1.40625 1.328125 3.984375q0 0.15625 -0.015625 0.46875l-7.734375 0q0.09375 1.703125 0.96875 2.609375q0.875 0.90625 2.171875 0.90625q0.96875 0 1.640625 -0.5q0.6875 -0.515625 1.09375 -1.625zm-5.78125 -2.84375l5.796875 0q-0.109375 -1.296875 -0.65625 -1.953125q-0.84375 -1.015625 -2.1875 -1.015625q-1.203125 0 -2.03125 0.8125q-0.828125 0.796875 -0.921875 2.15625zm9.716797 10.1875l-0.1875 -1.65625q0.578125 0.15625 1.0 0.15625q0.59375 0 0.9375 -0.203125q0.359375 -0.1875 0.578125 -0.53125q0.171875 -0.265625 0.546875 -1.3125q0.046875 -0.15625 0.15625 -0.4375l-3.9375 -10.390625l1.890625 0l2.15625 6.015625q0.421875 1.140625 0.75 2.390625q0.3125 -1.203125 0.71875 -2.359375l2.21875 -6.046875l1.765625 0l-3.953125 10.546875q-0.625 1.71875 -0.984375 2.359375q-0.46875 0.875 -1.078125 1.265625q-0.59375 0.40625 -1.4375 0.40625q-0.515625 0 -1.140625 -0.203125zm24.884766 -12.421875l-9.453125 0l0 -1.640625l9.453125 0l0 1.640625zm0 4.34375l-9.453125 0l0 -1.640625l9.453125 0l0 1.640625z" fill-rule="nonzero"/><path fill="#980000" d="m293.85278 134.19356l-2.734375 0l0 -1.96875q0 -1.1875 0.203125 -1.875q0.203125 -0.6875 0.765625 -1.234375q0.578125 -0.546875 1.453125 -0.859375l0.546875 1.125q-0.828125 0.28125 -1.1875 0.765625q-0.359375 0.484375 -0.375 1.296875l1.328125 0l0 2.75zm4.578125 0l-2.734375 0l0 -1.96875q0 -1.203125 0.203125 -1.875q0.21875 -0.6875 0.78125 -1.234375q0.578125 -0.546875 1.4375 -0.859375l0.546875 1.125q-0.828125 0.28125 -1.1875 0.765625q-0.34375 0.484375 -0.375 1.296875l1.328125 0l0 2.75zm8.015625 -5.796875l2.875 0l0 9.0625q0 1.765625 -0.3125 2.734375q-0.421875 1.25 -1.53125 2.015625q-1.09375 0.75 -2.90625 0.75q-2.109375 0 -3.25 -1.1875q-1.140625 -1.1875 -1.15625 -3.484375l2.71875 -0.3125q0.046875 1.234375 0.359375 1.734375q0.46875 0.765625 1.4375 0.765625q0.96875 0 1.359375 -0.546875q0.40625 -0.546875 0.40625 -2.28125l0 -9.25zm7.982422 7.109375l-2.484375 -0.453125q0.421875 -1.5 1.4375 -2.21875q1.03125 -0.734375 3.046875 -0.734375q1.84375 0 2.734375 0.4375q0.90625 0.4375 1.265625 1.109375q0.375 0.65625 0.375 2.453125l-0.03125 3.203125q0 1.359375 0.125 2.015625q0.140625 0.640625 0.5 1.390625l-2.71875 0q-0.109375 -0.28125 -0.265625 -0.8125q-0.0625 -0.25 -0.09375 -0.328125q-0.703125 0.6875 -1.515625 1.03125q-0.796875 0.34375 -1.703125 0.34375q-1.59375 0 -2.515625 -0.859375q-0.921875 -0.875 -0.921875 -2.203125q0 -0.890625 0.40625 -1.578125q0.421875 -0.6875 1.171875 -1.046875q0.765625 -0.375 2.203125 -0.640625q1.921875 -0.359375 2.65625 -0.671875l0 -0.28125q0 -0.78125 -0.390625 -1.109375q-0.390625 -0.34375 -1.46875 -0.34375q-0.734375 0 -1.15625 0.28125q-0.40625 0.28125 -0.65625 1.015625zm3.671875 2.21875q-0.53125 0.171875 -1.671875 0.421875q-1.140625 0.25 -1.484375 0.484375q-0.546875 0.375 -0.546875 0.96875q0 0.5625 0.421875 0.984375q0.4375 0.421875 1.109375 0.421875q0.734375 0 1.40625 -0.484375q0.5 -0.375 0.65625 -0.90625q0.109375 -0.359375 0.109375 -1.34375l0 -0.546875zm8.248047 4.984375l-4.171875 -10.375l2.875 0l1.953125 5.296875l0.578125 1.765625q0.21875 -0.671875 0.28125 -0.890625q0.125 -0.4375 0.28125 -0.875l1.984375 -5.296875l2.8125 0l-4.109375 10.375l-2.484375 0zm10.326172 -7.203125l-2.484375 -0.453125q0.421875 -1.5 1.4375 -2.21875q1.03125 -0.734375 3.046875 -0.734375q1.84375 0 2.734375 0.4375q0.90625 0.4375 1.265625 1.109375q0.375 0.65625 0.375 2.453125l-0.03125 3.203125q0 1.359375 0.125 2.015625q0.140625 0.640625 0.5 1.390625l-2.71875 0q-0.109375 -0.28125 -0.265625 -0.8125q-0.0625 -0.25 -0.09375 -0.328125q-0.703125 0.6875 -1.515625 1.03125q-0.796875 0.34375 -1.703125 0.34375q-1.59375 0 -2.515625 -0.859375q-0.921875 -0.875 -0.921875 -2.203125q0 -0.890625 0.40625 -1.578125q0.421875 -0.6875 1.171875 -1.046875q0.765625 -0.375 2.203125 -0.640625q1.921875 -0.359375 2.65625 -0.671875l0 -0.28125q0 -0.78125 -0.390625 -1.109375q-0.390625 -0.34375 -1.46875 -0.34375q-0.734375 0 -1.15625 0.28125q-0.40625 0.28125 -0.65625 1.015625zm3.671875 2.21875q-0.53125 0.171875 -1.671875 0.421875q-1.140625 0.25 -1.484375 0.484375q-0.546875 0.375 -0.546875 0.96875q0 0.5625 0.421875 0.984375q0.4375 0.421875 1.109375 0.421875q0.734375 0 1.40625 -0.484375q0.5 -0.375 0.65625 -0.90625q0.109375 -0.359375 0.109375 -1.34375l0 -0.546875zm4.685547 0.328125l2.8125 -0.28125q0.265625 1.421875 1.03125 2.09375q0.78125 0.65625 2.09375 0.65625q1.40625 0 2.109375 -0.59375q0.703125 -0.59375 0.703125 -1.375q0 -0.515625 -0.296875 -0.859375q-0.296875 -0.359375 -1.03125 -0.625q-0.515625 -0.1875 -2.3125 -0.625q-2.328125 -0.578125 -3.265625 -1.421875q-1.328125 -1.1875 -1.328125 -2.875q0 -1.09375 0.625 -2.046875q0.625 -0.953125 1.78125 -1.453125q1.171875 -0.5 2.828125 -0.5q2.6875 0 4.046875 1.1875q1.375 1.171875 1.4375 3.15625l-2.890625 0.125q-0.1875 -1.109375 -0.796875 -1.59375q-0.609375 -0.484375 -1.828125 -0.484375q-1.265625 0 -1.96875 0.515625q-0.46875 0.34375 -0.46875 0.890625q0 0.515625 0.4375 0.875q0.546875 0.453125 2.65625 0.953125q2.109375 0.5 3.109375 1.03125q1.015625 0.53125 1.578125 1.453125q0.578125 0.921875 0.578125 2.28125q0 1.234375 -0.6875 2.3125q-0.671875 1.0625 -1.921875 1.59375q-1.25 0.515625 -3.125 0.515625q-2.703125 0 -4.171875 -1.25q-1.453125 -1.25 -1.734375 -3.65625zm23.105469 -2.65625l-2.703125 0.5q-0.140625 -0.8125 -0.625 -1.21875q-0.484375 -0.421875 -1.25 -0.421875q-1.03125 0 -1.640625 0.71875q-0.609375 0.703125 -0.609375 2.359375q0 1.84375 0.609375 2.609375q0.625 0.765625 1.671875 0.765625q0.78125 0 1.28125 -0.4375q0.5 -0.453125 0.703125 -1.53125l2.6875 0.453125q-0.40625 1.859375 -1.609375 2.8125q-1.1875 0.9375 -3.1875 0.9375q-2.28125 0 -3.640625 -1.4375q-1.34375 -1.4375 -1.34375 -3.96875q0 -2.578125 1.359375 -4.0q1.359375 -1.4375 3.671875 -1.4375q1.890625 0 3.0 0.828125q1.125 0.8125 1.625 2.46875zm4.701172 7.3125l-2.75 0l0 -10.375l2.5625 0l0 1.484375q0.640625 -1.046875 1.15625 -1.375q0.53125 -0.34375 1.203125 -0.34375q0.9375 0 1.796875 0.515625l-0.84375 2.390625q-0.6875 -0.4375 -1.28125 -0.4375q-0.578125 0 -0.984375 0.3125q-0.40625 0.3125 -0.640625 1.15625q-0.21875 0.828125 -0.21875 3.46875l0 3.203125zm5.158203 -11.78125l0 -2.53125l2.75 0l0 2.53125l-2.75 0zm0 11.78125l0 -10.375l2.75 0l0 10.375l-2.75 0zm5.4785156 -10.375l2.5625 0l0 1.53125q0.5 -0.78125 1.34375 -1.265625q0.84375 -0.5 1.890625 -0.5q1.796875 0 3.046875 1.421875q1.265625 1.40625 1.265625 3.9375q0 2.609375 -1.265625 4.046875q-1.265625 1.4375 -3.078125 1.4375q-0.859375 0 -1.5625 -0.34375q-0.6875 -0.34375 -1.453125 -1.171875l0 5.234375l-2.75 0l0 -14.328125zm2.71875 5.015625q0 1.75 0.6875 2.59375q0.6875 0.828125 1.6875 0.828125q0.953125 0 1.59375 -0.765625q0.640625 -0.78125 0.640625 -2.515625q0 -1.640625 -0.65625 -2.421875q-0.65625 -0.796875 -1.625 -0.796875q-1.0 0 -1.671875 0.78125q-0.65625 0.765625 -0.65625 2.296875zm14.326172 -5.015625l0 2.1875l-1.875 0l0 4.1875q0 1.265625 0.046875 1.484375q0.0625 0.203125 0.25 0.34375q0.203125 0.125 0.46875 0.125q0.375 0 1.109375 -0.265625l0.234375 2.140625q-0.96875 0.40625 -2.171875 0.40625q-0.75 0 -1.34375 -0.25q-0.59375 -0.25 -0.875 -0.640625q-0.265625 -0.40625 -0.375 -1.078125q-0.09375 -0.46875 -0.09375 -1.921875l0 -4.53125l-1.265625 0l0 -2.1875l1.265625 0l0 -2.0625l2.75 -1.59375l0 3.65625l1.875 0zm6.3320312 -3.9375l2.75 0l0 1.96875q0 1.1875 -0.21875 1.875q-0.203125 0.6875 -0.78125 1.234375q-0.5625 0.546875 -1.4375 0.859375l-0.53125 -1.140625q0.8125 -0.265625 1.171875 -0.75q0.359375 -0.5 0.359375 -1.3125l-1.3125 0l0 -2.734375zm-4.609375 0l2.75 0l0 1.96875q0 1.1875 -0.21875 1.875q-0.203125 0.6875 -0.78125 1.234375q-0.5625 0.546875 -1.4375 0.859375l-0.53125 -1.140625q0.828125 -0.265625 1.171875 -0.75q0.359375 -0.5 0.375 -1.3125l-1.328125 0l0 -2.734375z" fill-rule="nonzero"/><path fill="#000000" d="m240.10864 166.70918l-3.953125 -10.375l1.859375 0l2.234375 6.21875q0.359375 1.0 0.65625 2.078125q0.234375 -0.8125 0.65625 -1.96875l2.296875 -6.328125l1.8125 0l-3.921875 10.375l-1.640625 0zm13.890625 -1.28125q-0.984375 0.828125 -1.890625 1.171875q-0.90625 0.34375 -1.9375 0.34375q-1.703125 0 -2.625 -0.828125q-0.921875 -0.84375 -0.921875 -2.140625q0 -0.765625 0.34375 -1.390625q0.359375 -0.625 0.921875 -1.0q0.5625 -0.390625 1.265625 -0.59375q0.515625 -0.125 1.5625 -0.265625q2.125 -0.25 3.125 -0.59375q0.015625 -0.359375 0.015625 -0.46875q0 -1.0625 -0.5 -1.515625q-0.671875 -0.59375 -2.0 -0.59375q-1.25 0 -1.84375 0.4375q-0.578125 0.4375 -0.859375 1.546875l-1.71875 -0.234375q0.234375 -1.109375 0.765625 -1.78125q0.53125 -0.6875 1.546875 -1.046875q1.015625 -0.375 2.359375 -0.375q1.328125 0 2.15625 0.3125q0.828125 0.3125 1.21875 0.796875q0.390625 0.46875 0.546875 1.1875q0.09375 0.453125 0.09375 1.625l0 2.34375q0 2.453125 0.109375 3.109375q0.109375 0.640625 0.453125 1.234375l-1.84375 0q-0.265625 -0.546875 -0.34375 -1.28125zm-0.15625 -3.921875q-0.953125 0.390625 -2.875 0.65625q-1.078125 0.15625 -1.53125 0.359375q-0.4375 0.1875 -0.6875 0.5625q-0.25 0.375 -0.25 0.84375q0 0.703125 0.53125 1.171875q0.53125 0.46875 1.5625 0.46875q1.015625 0 1.796875 -0.4375q0.796875 -0.453125 1.171875 -1.21875q0.28125 -0.609375 0.28125 -1.765625l0 -0.640625zm4.466797 5.203125l0 -14.3125l1.75 0l0 14.3125l-1.75 0zm11.271484 0l0 -1.53125q-1.203125 1.765625 -3.28125 1.765625q-0.921875 0 -1.71875 -0.34375q-0.796875 -0.359375 -1.1875 -0.890625q-0.375 -0.53125 -0.53125 -1.3125q-0.109375 -0.515625 -0.109375 -1.640625l0 -6.421875l1.75 0l0 5.75q0 1.375 0.109375 1.859375q0.171875 0.6875 0.703125 1.09375q0.546875 0.390625 1.328125 0.390625q0.796875 0 1.484375 -0.40625q0.703125 -0.40625 0.984375 -1.09375q0.296875 -0.703125 0.296875 -2.03125l0 -5.5625l1.75 0l0 10.375l-1.578125 0zm11.435547 -3.34375l1.8125 0.234375q-0.421875 1.578125 -1.59375 2.46875q-1.15625 0.875 -2.96875 0.875q-2.265625 0 -3.609375 -1.390625q-1.328125 -1.40625 -1.328125 -3.9375q0 -2.625 1.34375 -4.0625q1.34375 -1.453125 3.5 -1.453125q2.078125 0 3.390625 1.421875q1.328125 1.40625 1.328125 3.984375q0 0.15625 -0.015625 0.46875l-7.734375 0q0.09375 1.703125 0.96875 2.609375q0.875 0.90625 2.171875 0.90625q0.96875 0 1.640625 -0.5q0.6875 -0.515625 1.09375 -1.625zm-5.78125 -2.84375l5.796875 0q-0.109375 -1.296875 -0.65625 -1.953125q-0.84375 -1.015625 -2.1875 -1.015625q-1.203125 0 -2.03125 0.8125q-0.828125 0.796875 -0.921875 2.15625zm24.601562 -2.234375l-9.453125 0l0 -1.640625l9.453125 0l0 1.640625zm0 4.34375l-9.453125 0l0 -1.640625l9.453125 0l0 1.640625zm14.126953 4.078125l-1.765625 0l0 -11.203125q-0.625 0.609375 -1.65625 1.21875q-1.03125 0.59375 -1.859375 0.90625l0 -1.703125q1.484375 -0.6875 2.578125 -1.671875q1.109375 -1.0 1.5625 -1.921875l1.140625 0l0 14.375zm4.763672 -3.3125l1.6875 -0.15625q0.21875 1.1875 0.8125 1.734375q0.609375 0.53125 1.5625 0.53125q0.8125 0 1.421875 -0.359375q0.609375 -0.375 1.0 -1.0q0.390625 -0.625 0.65625 -1.671875q0.265625 -1.0625 0.265625 -2.15625q0 -0.109375 -0.015625 -0.34375q-0.53125 0.828125 -1.4375 1.359375q-0.90625 0.515625 -1.984375 0.515625q-1.765625 0 -3.0 -1.28125q-1.234375 -1.296875 -1.234375 -3.40625q0 -2.171875 1.28125 -3.5q1.296875 -1.328125 3.21875 -1.328125q1.40625 0 2.5625 0.75q1.15625 0.75 1.75 2.140625q0.609375 1.390625 0.609375 4.03125q0 2.75 -0.609375 4.375q-0.59375 1.625 -1.765625 2.484375q-1.171875 0.84375 -2.75 0.84375q-1.6875 0 -2.75 -0.9375q-1.0625 -0.9375 -1.28125 -2.625zm7.203125 -6.3125q0 -1.515625 -0.8125 -2.40625q-0.796875 -0.890625 -1.9375 -0.890625q-1.171875 0 -2.046875 0.96875q-0.859375 0.953125 -0.859375 2.46875q0 1.375 0.8125 2.234375q0.828125 0.84375 2.046875 0.84375q1.21875 0 2.0 -0.84375q0.796875 -0.859375 0.796875 -2.375zm3.9199219 6.3125l1.6875 -0.15625q0.21875 1.1875 0.8125 1.734375q0.609375 0.53125 1.5625 0.53125q0.8125 0 1.421875 -0.359375q0.609375 -0.375 1.0 -1.0q0.390625 -0.625 0.65625 -1.671875q0.265625 -1.0625 0.265625 -2.15625q0 -0.109375 -0.015625 -0.34375q-0.53125 0.828125 -1.4375 1.359375q-0.90625 0.515625 -1.984375 0.515625q-1.765625 0 -3.0 -1.28125q-1.234375 -1.296875 -1.234375 -3.40625q0 -2.171875 1.28125 -3.5q1.296875 -1.328125 3.21875 -1.328125q1.40625 0 2.5625 0.75q1.15625 0.75 1.75 2.140625q0.609375 1.390625 0.609375 4.03125q0 2.75 -0.609375 4.375q-0.59375 1.625 -1.765625 2.484375q-1.171875 0.84375 -2.75 0.84375q-1.6875 0 -2.75 -0.9375q-1.0625 -0.9375 -1.28125 -2.625zm7.203125 -6.3125q0 -1.515625 -0.8125 -2.40625q-0.796875 -0.890625 -1.9375 -0.890625q-1.171875 0 -2.046875 0.96875q-0.859375 0.953125 -0.859375 2.46875q0 1.375 0.8125 2.234375q0.828125 0.84375 2.046875 0.84375q1.21875 0 2.0 -0.84375q0.796875 -0.859375 0.796875 -2.375zm3.6542969 5.875l1.84375 -0.15625q0.203125 1.34375 0.953125 2.03125q0.75 0.671875 1.8125 0.671875q1.265625 0 2.140625 -0.953125q0.875 -0.953125 0.875 -2.546875q0 -1.5 -0.84375 -2.359375q-0.84375 -0.875 -2.203125 -0.875q-0.859375 0 -1.546875 0.390625q-0.671875 0.375 -1.0625 1.0l-1.65625 -0.21875l1.390625 -7.359375l7.125 0l0 1.6875l-5.71875 0l-0.765625 3.84375q1.28125 -0.90625 2.703125 -0.90625q1.875 0 3.15625 1.3125q1.296875 1.296875 1.296875 3.328125q0 1.953125 -1.140625 3.359375q-1.375 1.75 -3.75 1.75q-1.953125 0 -3.203125 -1.09375q-1.234375 -1.09375 -1.40625 -2.90625z" fill-rule="nonzero"/><path fill="#000000" d="m237.21802 190.70918l0 -14.3125l1.765625 0l0 5.125q1.234375 -1.421875 3.109375 -1.421875q1.140625 0 1.984375 0.453125q0.859375 0.453125 1.21875 1.265625q0.375 0.796875 0.375 2.3125l0 6.578125l-1.75 0l0 -6.578125q0 -1.3125 -0.578125 -1.90625q-0.578125 -0.609375 -1.609375 -0.609375q-0.78125 0 -1.484375 0.40625q-0.6875 0.40625 -0.984375 1.109375q-0.28125 0.6875 -0.28125 1.90625l0 5.671875l-1.765625 0zm17.904297 -1.28125q-0.984375 0.828125 -1.890625 1.171875q-0.90625 0.34375 -1.9375 0.34375q-1.703125 0 -2.625 -0.828125q-0.921875 -0.84375 -0.921875 -2.140625q0 -0.765625 0.34375 -1.390625q0.359375 -0.625 0.921875 -1.0q0.5625 -0.390625 1.265625 -0.59375q0.515625 -0.125 1.5625 -0.265625q2.125 -0.25 3.125 -0.59375q0.015625 -0.359375 0.015625 -0.46875q0 -1.0625 -0.5 -1.515625q-0.671875 -0.59375 -2.0 -0.59375q-1.25 0 -1.84375 0.4375q-0.578125 0.4375 -0.859375 1.546875l-1.71875 -0.234375q0.234375 -1.109375 0.765625 -1.78125q0.53125 -0.6875 1.546875 -1.046875q1.015625 -0.375 2.359375 -0.375q1.328125 0 2.15625 0.3125q0.828125 0.3125 1.21875 0.796875q0.390625 0.46875 0.546875 1.1875q0.09375 0.453125 0.09375 1.625l0 2.34375q0 2.453125 0.109375 3.109375q0.109375 0.640625 0.453125 1.234375l-1.84375 0q-0.265625 -0.546875 -0.34375 -1.28125zm-0.15625 -3.921875q-0.953125 0.390625 -2.875 0.65625q-1.078125 0.15625 -1.53125 0.359375q-0.4375 0.1875 -0.6875 0.5625q-0.25 0.375 -0.25 0.84375q0 0.703125 0.53125 1.171875q0.53125 0.46875 1.5625 0.46875q1.015625 0 1.796875 -0.4375q0.796875 -0.453125 1.171875 -1.21875q0.28125 -0.609375 0.28125 -1.765625l0 -0.640625zm3.7949219 2.109375l1.75 -0.28125q0.140625 1.046875 0.8125 1.609375q0.671875 0.546875 1.875 0.546875q1.203125 0 1.78125 -0.484375q0.59375 -0.5 0.59375 -1.15625q0 -0.59375 -0.515625 -0.9375q-0.359375 -0.234375 -1.796875 -0.59375q-1.9375 -0.5 -2.6875 -0.84375q-0.734375 -0.359375 -1.125 -0.984375q-0.390625 -0.640625 -0.390625 -1.40625q0 -0.6875 0.3125 -1.28125q0.328125 -0.59375 0.875 -0.984375q0.40625 -0.296875 1.109375 -0.5q0.71875 -0.21875 1.53125 -0.21875q1.21875 0 2.140625 0.359375q0.921875 0.34375 1.359375 0.953125q0.4375 0.59375 0.609375 1.59375l-1.71875 0.234375q-0.125 -0.796875 -0.6875 -1.234375q-0.5625 -0.453125 -1.578125 -0.453125q-1.21875 0 -1.734375 0.40625q-0.515625 0.390625 -0.515625 0.921875q0 0.34375 0.21875 0.625q0.203125 0.28125 0.671875 0.46875q0.265625 0.09375 1.546875 0.4375q1.875 0.5 2.609375 0.828125q0.734375 0.3125 1.15625 0.921875q0.421875 0.59375 0.421875 1.5q0 0.875 -0.515625 1.65625q-0.515625 0.78125 -1.484375 1.203125q-0.96875 0.421875 -2.1875 0.421875q-2.015625 0 -3.078125 -0.84375q-1.0625 -0.84375 -1.359375 -2.484375zm10.703125 3.09375l0 -14.3125l1.765625 0l0 5.125q1.234375 -1.421875 3.109375 -1.421875q1.140625 0 1.984375 0.453125q0.859375 0.453125 1.21875 1.265625q0.375 0.796875 0.375 2.3125l0 6.578125l-1.75 0l0 -6.578125q0 -1.3125 -0.578125 -1.90625q-0.578125 -0.609375 -1.609375 -0.609375q-0.78125 0 -1.484375 0.40625q-0.6875 0.40625 -0.984375 1.109375q-0.28125 0.6875 -0.28125 1.90625l0 5.671875l-1.765625 0zm25.929688 -8.421875l-9.453125 0l0 -1.640625l9.453125 0l0 1.640625zm0 4.34375l-9.453125 0l0 -1.640625l9.453125 0l0 1.640625z" fill-rule="nonzero"/><path fill="#980000" d="m309.94263 190.70918l-2.75 0l0 -10.34375q-1.5 1.40625 -3.546875 2.078125l0 -2.484375q1.078125 -0.359375 2.328125 -1.328125q1.265625 -0.984375 1.734375 -2.296875l2.234375 0l0 14.375zm3.9980469 -3.796875l2.65625 -0.328125q0.125 1.015625 0.6875 1.5625q0.5625 0.53125 1.34375 0.53125q0.859375 0 1.4375 -0.640625q0.578125 -0.65625 0.578125 -1.75q0 -1.03125 -0.5625 -1.625q-0.546875 -0.609375 -1.359375 -0.609375q-0.515625 0 -1.25 0.203125l0.296875 -2.234375q1.109375 0.03125 1.6875 -0.484375q0.59375 -0.515625 0.59375 -1.359375q0 -0.734375 -0.4375 -1.15625q-0.421875 -0.4375 -1.125 -0.4375q-0.703125 0 -1.203125 0.5q-0.5 0.484375 -0.609375 1.421875l-2.53125 -0.4375q0.265625 -1.296875 0.796875 -2.0625q0.53125 -0.78125 1.484375 -1.21875q0.953125 -0.453125 2.140625 -0.453125q2.015625 0 3.234375 1.28125q1.015625 1.0625 1.015625 2.390625q0 1.890625 -2.0625 3.0q1.234375 0.265625 1.96875 1.1875q0.734375 0.921875 0.734375 2.21875q0 1.890625 -1.375 3.21875q-1.375 1.328125 -3.4375 1.328125q-1.9375 0 -3.21875 -1.125q-1.28125 -1.125 -1.484375 -2.921875zm11.123047 0l2.65625 -0.328125q0.125 1.015625 0.6875 1.5625q0.5625 0.53125 1.34375 0.53125q0.859375 0 1.4375 -0.640625q0.578125 -0.65625 0.578125 -1.75q0 -1.03125 -0.5625 -1.625q-0.546875 -0.609375 -1.359375 -0.609375q-0.515625 0 -1.25 0.203125l0.296875 -2.234375q1.109375 0.03125 1.6875 -0.484375q0.59375 -0.515625 0.59375 -1.359375q0 -0.734375 -0.4375 -1.15625q-0.421875 -0.4375 -1.125 -0.4375q-0.703125 0 -1.203125 0.5q-0.5 0.484375 -0.609375 1.421875l-2.53125 -0.4375q0.265625 -1.296875 0.796875 -2.0625q0.53125 -0.78125 1.484375 -1.21875q0.953125 -0.453125 2.140625 -0.453125q2.015625 0 3.234375 1.28125q1.015625 1.0625 1.015625 2.390625q0 1.890625 -2.0625 3.0q1.234375 0.265625 1.96875 1.1875q0.734375 0.921875 0.734375 2.21875q0 1.890625 -1.375 3.21875q-1.375 1.328125 -3.4375 1.328125q-1.9375 0 -3.21875 -1.125q-1.28125 -1.125 -1.484375 -2.921875zm18.248047 3.796875l-2.75 0l0 -10.34375q-1.5 1.40625 -3.546875 2.078125l0 -2.484375q1.078125 -0.359375 2.328125 -1.328125q1.265625 -0.984375 1.734375 -2.296875l2.234375 0l0 14.375zm13.388672 -10.8125l-2.65625 0.296875q-0.09375 -0.828125 -0.5 -1.21875q-0.40625 -0.390625 -1.0625 -0.390625q-0.875 0 -1.484375 0.78125q-0.59375 0.78125 -0.75 3.25q1.03125 -1.203125 2.546875 -1.203125q1.71875 0 2.9375 1.3125q1.234375 1.296875 1.234375 3.375q0 2.203125 -1.296875 3.53125q-1.28125 1.328125 -3.296875 1.328125q-2.171875 0 -3.578125 -1.6875q-1.390625 -1.6875 -1.390625 -5.53125q0 -3.9375 1.453125 -5.671875q1.46875 -1.734375 3.78125 -1.734375q1.640625 0 2.703125 0.921875q1.078125 0.90625 1.359375 2.640625zm-6.21875 5.984375q0 1.34375 0.609375 2.078125q0.625 0.71875 1.421875 0.71875q0.75 0 1.25 -0.59375q0.515625 -0.59375 0.515625 -1.953125q0 -1.40625 -0.546875 -2.046875q-0.546875 -0.65625 -1.359375 -0.65625q-0.796875 0 -1.34375 0.625q-0.546875 0.625 -0.546875 1.828125zm7.951172 1.03125l2.65625 -0.328125q0.125 1.015625 0.6875 1.5625q0.5625 0.53125 1.34375 0.53125q0.859375 0 1.4375 -0.640625q0.578125 -0.65625 0.578125 -1.75q0 -1.03125 -0.5625 -1.625q-0.546875 -0.609375 -1.359375 -0.609375q-0.515625 0 -1.25 0.203125l0.296875 -2.234375q1.109375 0.03125 1.6875 -0.484375q0.59375 -0.515625 0.59375 -1.359375q0 -0.734375 -0.4375 -1.15625q-0.421875 -0.4375 -1.125 -0.4375q-0.703125 0 -1.203125 0.5q-0.5 0.484375 -0.609375 1.421875l-2.53125 -0.4375q0.265625 -1.296875 0.796875 -2.0625q0.53125 -0.78125 1.484375 -1.21875q0.953125 -0.453125 2.140625 -0.453125q2.015625 0 3.234375 1.28125q1.015625 1.0625 1.015625 2.390625q0 1.890625 -2.0625 3.0q1.234375 0.265625 1.96875 1.1875q0.734375 0.921875 0.734375 2.21875q0 1.890625 -1.375 3.21875q-1.375 1.328125 -3.4375 1.328125q-1.9375 0 -3.21875 -1.125q-1.28125 -1.125 -1.484375 -2.921875zm15.857422 -10.578125q2.078125 0 3.25 1.484375q1.40625 1.75 1.40625 5.828125q0 4.0625 -1.40625 5.84375q-1.171875 1.46875 -3.25 1.46875q-2.078125 0 -3.359375 -1.609375q-1.28125 -1.609375 -1.28125 -5.734375q0 -4.046875 1.40625 -5.8125q1.15625 -1.46875 3.234375 -1.46875zm0 2.28125q-0.5 0 -0.890625 0.3125q-0.390625 0.3125 -0.59375 1.140625q-0.28125 1.0625 -0.28125 3.578125q0 2.515625 0.25 3.46875q0.25 0.9375 0.625 1.25q0.390625 0.3125 0.890625 0.3125q0.5 0 0.890625 -0.3125q0.390625 -0.328125 0.609375 -1.140625q0.28125 -1.0625 0.28125 -3.578125q0 -2.515625 -0.25 -3.453125q-0.25 -0.953125 -0.640625 -1.265625q-0.390625 -0.3125 -0.890625 -0.3125zm11.123047 -2.28125q2.078125 0 3.25 1.484375q1.40625 1.75 1.40625 5.828125q0 4.0625 -1.40625 5.84375q-1.171875 1.46875 -3.25 1.46875q-2.078125 0 -3.359375 -1.609375q-1.28125 -1.609375 -1.28125 -5.734375q0 -4.046875 1.40625 -5.8125q1.15625 -1.46875 3.234375 -1.46875zm0 2.28125q-0.5 0 -0.890625 0.3125q-0.390625 0.3125 -0.59375 1.140625q-0.28125 1.0625 -0.28125 3.578125q0 2.515625 0.25 3.46875q0.25 0.9375 0.625 1.25q0.390625 0.3125 0.890625 0.3125q0.5 0 0.890625 -0.3125q0.390625 -0.328125 0.609375 -1.140625q0.28125 -1.0625 0.28125 -3.578125q0 -2.515625 -0.25 -3.453125q-0.25 -0.953125 -0.640625 -1.265625q-0.390625 -0.3125 -0.890625 -0.3125zm13.513672 12.09375l-2.75 0l0 -10.34375q-1.5 1.40625 -3.546875 2.078125l0 -2.484375q1.078125 -0.359375 2.328125 -1.328125q1.265625 -0.984375 1.734375 -2.296875l2.234375 0l0 14.375zm9.482422 0l0 -2.875l-5.859375 0l0 -2.40625l6.203125 -9.09375l2.3125 0l0 9.078125l1.78125 0l0 2.421875l-1.78125 0l0 2.875l-2.65625 0zm0 -5.296875l0 -4.890625l-3.296875 4.890625l3.296875 0z" fill-rule="nonzero"/><path fill="#000000" d="m237.21802 214.70918l0 -10.375l1.59375 0l0 1.484375q1.140625 -1.71875 3.296875 -1.71875q0.9375 0 1.71875 0.34375q0.796875 0.328125 1.1875 0.875q0.390625 0.546875 0.546875 1.296875q0.09375 0.5 0.09375 1.71875l0 6.375l-1.765625 0l0 -6.3125q0 -1.078125 -0.203125 -1.609375q-0.203125 -0.53125 -0.734375 -0.84375q-0.515625 -0.3125 -1.21875 -0.3125q-1.125 0 -1.9375 0.71875q-0.8125 0.703125 -0.8125 2.6875l0 5.671875l-1.765625 0zm18.232422 -3.34375l1.8125 0.234375q-0.421875 1.578125 -1.59375 2.46875q-1.15625 0.875 -2.96875 0.875q-2.265625 0 -3.609375 -1.390625q-1.328125 -1.40625 -1.328125 -3.9375q0 -2.625 1.34375 -4.0625q1.34375 -1.453125 3.5 -1.453125q2.078125 0 3.390625 1.421875q1.328125 1.40625 1.328125 3.984375q0 0.15625 -0.015625 0.46875l-7.734375 0q0.09375 1.703125 0.96875 2.609375q0.875 0.90625 2.171875 0.90625q0.96875 0 1.640625 -0.5q0.6875 -0.515625 1.09375 -1.625zm-5.78125 -2.84375l5.796875 0q-0.109375 -1.296875 -0.65625 -1.953125q-0.84375 -1.015625 -2.1875 -1.015625q-1.203125 0 -2.03125 0.8125q-0.828125 0.796875 -0.921875 2.15625zm8.623047 6.1875l3.796875 -5.390625l-3.5 -4.984375l2.1875 0l1.59375 2.4375q0.453125 0.6875 0.71875 1.15625q0.4375 -0.640625 0.796875 -1.140625l1.75 -2.453125l2.09375 0l-3.578125 4.890625l3.859375 5.484375l-2.15625 0l-2.140625 -3.21875l-0.5625 -0.875l-2.71875 4.09375l-2.140625 0zm15.015625 -1.578125l0.25 1.5625q-0.734375 0.15625 -1.328125 0.15625q-0.953125 0 -1.484375 -0.296875q-0.515625 -0.3125 -0.734375 -0.796875q-0.21875 -0.5 -0.21875 -2.078125l0 -5.96875l-1.28125 0l0 -1.375l1.28125 0l0 -2.5625l1.75 -1.0625l0 3.625l1.765625 0l0 1.375l-1.765625 0l0 6.0625q0 0.75 0.09375 0.96875q0.09375 0.203125 0.296875 0.34375q0.21875 0.125 0.609375 0.125q0.28125 0 0.765625 -0.078125zm16.519531 -6.84375l-9.453125 0l0 -1.640625l9.453125 0l0 1.640625zm0 4.34375l-9.453125 0l0 -1.640625l9.453125 0l0 1.640625z" fill-rule="nonzero"/><path fill="#cccccc" d="m3.8451443 35.824146l39.81102 0l0 24.031498l-39.81102 0z" fill-rule="evenodd"/><path stroke="#000000" stroke-width="2.0" stroke-linejoin="round" stroke-linecap="butt" d="m3.8451443 35.824146l39.81102 0l0 24.031498l-39.81102 0z" fill-rule="evenodd"/><path fill="#000000" fill-opacity="0.0" d="m3.6548557 -0.51968503l40.0 0l0 40.0l-40.0 0z" fill-rule="evenodd"/><path fill="#000000" d="m19.248247 19.806562q0 -2.359375 0.484375 -3.796875q0.484375 -1.453124 1.4375 -2.234374q0.96875 -0.78125 2.421875 -0.78125q1.078125 0 1.890625 0.4375q0.8125 0.421875 1.328125 1.25q0.53125 0.8125 0.828125 1.984374q0.3125 1.15625 0.3125 3.140625q0 2.359375 -0.484375 3.8125q-0.484375 1.4375 -1.453125 2.234375q-0.953125 0.78125 -2.421875 0.78125q-1.921875 0 -3.03125 -1.390625q-1.3125 -1.671875 -1.3125 -5.4375zm1.671875 0q0 3.296875 0.765625 4.390625q0.78125 1.078125 1.90625 1.078125q1.140625 0 1.90625 -1.09375q0.765625 -1.09375 0.765625 -4.375q0 -3.296875 -0.765625 -4.374999q-0.765625 -1.078125 -1.921875 -1.078125q-1.125 0 -1.796875 0.953125q-0.859375 1.218749 -0.859375 4.499999z" fill-rule="nonzero"/><path fill="#ffffff" d="m467.05774 123.49344l176.59845 0l0 96.031494l-176.59845 0z" fill-rule="evenodd"/><path stroke="#000000" stroke-width="2.0" stroke-linejoin="round" stroke-linecap="butt" d="m467.05774 123.49344l176.59845 0l0 96.031494l-176.59845 0z" fill-rule="evenodd"/><path fill="#000000" d="m477.38586 142.70918l0 -14.3125l1.765625 0l0 8.15625l4.15625 -4.21875l2.265625 0l-3.953125 3.84375l4.359375 6.53125l-2.171875 0l-3.421875 -5.296875l-1.234375 1.1875l0 4.109375l-1.765625 0zm17.09375 -3.34375l1.8125 0.234375q-0.421875 1.578125 -1.59375 2.46875q-1.15625 0.875 -2.96875 0.875q-2.265625 0 -3.609375 -1.390625q-1.328125 -1.40625 -1.328125 -3.9375q0 -2.625 1.34375 -4.0625q1.34375 -1.453125 3.5 -1.453125q2.078125 0 3.390625 1.421875q1.328125 1.40625 1.328125 3.984375q0 0.15625 -0.015625 0.46875l-7.734375 0q0.09375 1.703125 0.96875 2.609375q0.875 0.90625 2.171875 0.90625q0.96875 0 1.640625 -0.5q0.6875 -0.515625 1.09375 -1.625zm-5.78125 -2.84375l5.796875 0q-0.109375 -1.296875 -0.65625 -1.953125q-0.84375 -1.015625 -2.1875 -1.015625q-1.203125 0 -2.03125 0.8125q-0.828125 0.796875 -0.921875 2.15625zm9.716797 10.1875l-0.1875 -1.65625q0.578125 0.15625 1.0 0.15625q0.59375 0 0.9375 -0.203125q0.359375 -0.1875 0.578125 -0.53125q0.171875 -0.265625 0.546875 -1.3125q0.046875 -0.15625 0.15625 -0.4375l-3.9375 -10.390625l1.890625 0l2.15625 6.015625q0.421875 1.140625 0.75 2.390625q0.3125 -1.203125 0.71875 -2.359375l2.21875 -6.046875l1.765625 0l-3.953125 10.546875q-0.625 1.71875 -0.984375 2.359375q-0.46875 0.875 -1.078125 1.265625q-0.59375 0.40625 -1.4375 0.40625q-0.515625 0 -1.140625 -0.203125zm24.884766 -12.421875l-9.453125 0l0 -1.640625l9.453125 0l0 1.640625zm0 4.34375l-9.453125 0l0 -1.640625l9.453125 0l0 1.640625z" fill-rule="nonzero"/><path fill="#980000" d="m534.005 134.19356l-2.734375 0l0 -1.96875q0 -1.1875 0.203125 -1.875q0.203125 -0.6875 0.765625 -1.234375q0.578125 -0.546875 1.453125 -0.859375l0.546875 1.125q-0.828125 0.28125 -1.1875 0.765625q-0.359375 0.484375 -0.375 1.296875l1.328125 0l0 2.75zm4.578125 0l-2.734375 0l0 -1.96875q0 -1.203125 0.203125 -1.875q0.21875 -0.6875 0.78125 -1.234375q0.578125 -0.546875 1.4375 -0.859375l0.546875 1.125q-0.828125 0.28125 -1.1875 0.765625q-0.34375 0.484375 -0.375 1.296875l1.328125 0l0 2.75zm8.015625 -5.796875l2.875 0l0 9.0625q0 1.765625 -0.3125 2.734375q-0.421875 1.25 -1.53125 2.015625q-1.09375 0.75 -2.90625 0.75q-2.109375 0 -3.25 -1.1875q-1.140625 -1.1875 -1.15625 -3.484375l2.71875 -0.3125q0.046875 1.234375 0.359375 1.734375q0.46875 0.765625 1.4375 0.765625q0.96875 0 1.359375 -0.546875q0.40625 -0.546875 0.40625 -2.28125l0 -9.25zm7.982422 7.109375l-2.484375 -0.453125q0.421875 -1.5 1.4375 -2.21875q1.03125 -0.734375 3.046875 -0.734375q1.84375 0 2.734375 0.4375q0.90625 0.4375 1.265625 1.109375q0.375 0.65625 0.375 2.453125l-0.03125 3.203125q0 1.359375 0.125 2.015625q0.140625 0.640625 0.5 1.390625l-2.71875 0q-0.109375 -0.28125 -0.265625 -0.8125q-0.0625 -0.25 -0.09375 -0.328125q-0.703125 0.6875 -1.515625 1.03125q-0.796875 0.34375 -1.703125 0.34375q-1.59375 0 -2.515625 -0.859375q-0.921875 -0.875 -0.921875 -2.203125q0 -0.890625 0.40625 -1.578125q0.421875 -0.6875 1.171875 -1.046875q0.765625 -0.375 2.203125 -0.640625q1.921875 -0.359375 2.65625 -0.671875l0 -0.28125q0 -0.78125 -0.390625 -1.109375q-0.390625 -0.34375 -1.46875 -0.34375q-0.734375 0 -1.15625 0.28125q-0.40625 0.28125 -0.65625 1.015625zm3.671875 2.21875q-0.53125 0.171875 -1.671875 0.421875q-1.140625 0.25 -1.484375 0.484375q-0.546875 0.375 -0.546875 0.96875q0 0.5625 0.421875 0.984375q0.4375 0.421875 1.109375 0.421875q0.734375 0 1.40625 -0.484375q0.5 -0.375 0.65625 -0.90625q0.109375 -0.359375 0.109375 -1.34375l0 -0.546875zm8.248047 4.984375l-4.171875 -10.375l2.875 0l1.953125 5.296875l0.578125 1.765625q0.21875 -0.671875 0.28125 -0.890625q0.125 -0.4375 0.28125 -0.875l1.984375 -5.296875l2.8125 0l-4.109375 10.375l-2.484375 0zm10.326172 -7.203125l-2.484375 -0.453125q0.421875 -1.5 1.4375 -2.21875q1.03125 -0.734375 3.046875 -0.734375q1.84375 0 2.734375 0.4375q0.90625 0.4375 1.265625 1.109375q0.375 0.65625 0.375 2.453125l-0.03125 3.203125q0 1.359375 0.125 2.015625q0.140625 0.640625 0.5 1.390625l-2.71875 0q-0.109375 -0.28125 -0.265625 -0.8125q-0.0625 -0.25 -0.09375 -0.328125q-0.703125 0.6875 -1.515625 1.03125q-0.796875 0.34375 -1.703125 0.34375q-1.59375 0 -2.515625 -0.859375q-0.921875 -0.875 -0.921875 -2.203125q0 -0.890625 0.40625 -1.578125q0.421875 -0.6875 1.171875 -1.046875q0.765625 -0.375 2.203125 -0.640625q1.921875 -0.359375 2.65625 -0.671875l0 -0.28125q0 -0.78125 -0.390625 -1.109375q-0.390625 -0.34375 -1.46875 -0.34375q-0.734375 0 -1.15625 0.28125q-0.40625 0.28125 -0.65625 1.015625zm3.671875 2.21875q-0.53125 0.171875 -1.671875 0.421875q-1.140625 0.25 -1.484375 0.484375q-0.546875 0.375 -0.546875 0.96875q0 0.5625 0.421875 0.984375q0.4375 0.421875 1.109375 0.421875q0.734375 0 1.40625 -0.484375q0.5 -0.375 0.65625 -0.90625q0.109375 -0.359375 0.109375 -1.34375l0 -0.546875zm9.826172 -9.328125l2.75 0l0 1.96875q0 1.1875 -0.21875 1.875q-0.203125 0.6875 -0.78125 1.234375q-0.5625 0.546875 -1.4375 0.859375l-0.53125 -1.140625q0.8125 -0.265625 1.171875 -0.75q0.359375 -0.5 0.359375 -1.3125l-1.3125 0l0 -2.734375zm-4.609375 0l2.75 0l0 1.96875q0 1.1875 -0.21875 1.875q-0.203125 0.6875 -0.78125 1.234375q-0.5625 0.546875 -1.4375 0.859375l-0.53125 -1.140625q0.828125 -0.265625 1.171875 -0.75q0.359375 -0.5 0.375 -1.3125l-1.328125 0l0 -2.734375z" fill-rule="nonzero"/><path fill="#000000" d="m480.26086 166.70918l-3.953125 -10.375l1.859375 0l2.234375 6.21875q0.359375 1.0 0.65625 2.078125q0.234375 -0.8125 0.65625 -1.96875l2.296875 -6.328125l1.8125 0l-3.921875 10.375l-1.640625 0zm13.890625 -1.28125q-0.984375 0.828125 -1.890625 1.171875q-0.90625 0.34375 -1.9375 0.34375q-1.703125 0 -2.625 -0.828125q-0.921875 -0.84375 -0.921875 -2.140625q0 -0.765625 0.34375 -1.390625q0.359375 -0.625 0.921875 -1.0q0.5625 -0.390625 1.265625 -0.59375q0.515625 -0.125 1.5625 -0.265625q2.125 -0.25 3.125 -0.59375q0.015625 -0.359375 0.015625 -0.46875q0 -1.0625 -0.5 -1.515625q-0.671875 -0.59375 -2.0 -0.59375q-1.25 0 -1.84375 0.4375q-0.578125 0.4375 -0.859375 1.546875l-1.71875 -0.234375q0.234375 -1.109375 0.765625 -1.78125q0.53125 -0.6875 1.546875 -1.046875q1.015625 -0.375 2.359375 -0.375q1.328125 0 2.15625 0.3125q0.828125 0.3125 1.21875 0.796875q0.390625 0.46875 0.546875 1.1875q0.09375 0.453125 0.09375 1.625l0 2.34375q0 2.453125 0.109375 3.109375q0.109375 0.640625 0.453125 1.234375l-1.84375 0q-0.265625 -0.546875 -0.34375 -1.28125zm-0.15625 -3.921875q-0.953125 0.390625 -2.875 0.65625q-1.078125 0.15625 -1.53125 0.359375q-0.4375 0.1875 -0.6875 0.5625q-0.25 0.375 -0.25 0.84375q0 0.703125 0.53125 1.171875q0.53125 0.46875 1.5625 0.46875q1.015625 0 1.796875 -0.4375q0.796875 -0.453125 1.171875 -1.21875q0.28125 -0.609375 0.28125 -1.765625l0 -0.640625zm4.466797 5.203125l0 -14.3125l1.75 0l0 14.3125l-1.75 0zm11.271484 0l0 -1.53125q-1.203125 1.765625 -3.28125 1.765625q-0.921875 0 -1.71875 -0.34375q-0.796875 -0.359375 -1.1875 -0.890625q-0.375 -0.53125 -0.53125 -1.3125q-0.109375 -0.515625 -0.109375 -1.640625l0 -6.421875l1.75 0l0 5.75q0 1.375 0.109375 1.859375q0.171875 0.6875 0.703125 1.09375q0.546875 0.390625 1.328125 0.390625q0.796875 0 1.484375 -0.40625q0.703125 -0.40625 0.984375 -1.09375q0.296875 -0.703125 0.296875 -2.03125l0 -5.5625l1.75 0l0 10.375l-1.578125 0zm11.435547 -3.34375l1.8125 0.234375q-0.421875 1.578125 -1.59375 2.46875q-1.15625 0.875 -2.96875 0.875q-2.265625 0 -3.609375 -1.390625q-1.328125 -1.40625 -1.328125 -3.9375q0 -2.625 1.34375 -4.0625q1.34375 -1.453125 3.5 -1.453125q2.078125 0 3.390625 1.421875q1.328125 1.40625 1.328125 3.984375q0 0.15625 -0.015625 0.46875l-7.734375 0q0.09375 1.703125 0.96875 2.609375q0.875 0.90625 2.171875 0.90625q0.96875 0 1.640625 -0.5q0.6875 -0.515625 1.09375 -1.625zm-5.78125 -2.84375l5.796875 0q-0.109375 -1.296875 -0.65625 -1.953125q-0.84375 -1.015625 -2.1875 -1.015625q-1.203125 0 -2.03125 0.8125q-0.828125 0.796875 -0.921875 2.15625zm24.601562 -2.234375l-9.453125 0l0 -1.640625l9.453125 0l0 1.640625zm0 4.34375l-9.453125 0l0 -1.640625l9.453125 0l0 1.640625z" fill-rule="nonzero"/><path fill="#010000" fill-opacity="0.0" d="m546.6632 148.60371l44.492188 0l0 22.998047l-44.492188 0l0 -22.998047z" fill-rule="nonzero"/><path fill="#0000ff" d="m554.5382 166.70918l-2.75 0l0 -10.34375q-1.5 1.40625 -3.546875 2.078125l0 -2.484375q1.078125 -0.359375 2.328125 -1.328125q1.265625 -0.984375 1.734375 -2.296875l2.234375 0l0 14.375zm4.154297 -3.3125l2.65625 -0.296875q0.09375 0.8125 0.5 1.203125q0.421875 0.390625 1.09375 0.390625q0.84375 0 1.4375 -0.78125q0.609375 -0.78125 0.765625 -3.234375q-1.03125 1.203125 -2.578125 1.203125q-1.6875 0 -2.921875 -1.296875q-1.21875 -1.3125 -1.21875 -3.40625q0 -2.171875 1.28125 -3.5q1.296875 -1.34375 3.296875 -1.34375q2.1875 0 3.578125 1.6875q1.40625 1.6875 1.40625 5.53125q0 3.9375 -1.46875 5.671875q-1.453125 1.734375 -3.78125 1.734375q-1.6875 0 -2.71875 -0.890625q-1.03125 -0.890625 -1.328125 -2.671875zm6.21875 -6.0q0 -1.328125 -0.609375 -2.046875q-0.609375 -0.734375 -1.421875 -0.734375q-0.75 0 -1.265625 0.59375q-0.5 0.59375 -0.5 1.96875q0 1.390625 0.546875 2.046875q0.546875 0.640625 1.375 0.640625q0.78125 0 1.328125 -0.625q0.546875 -0.625 0.546875 -1.84375zm4.904297 6.0l2.65625 -0.296875q0.09375 0.8125 0.5 1.203125q0.421875 0.390625 1.09375 0.390625q0.84375 0 1.4375 -0.78125q0.609375 -0.78125 0.765625 -3.234375q-1.03125 1.203125 -2.578125 1.203125q-1.6875 0 -2.921875 -1.296875q-1.21875 -1.3125 -1.21875 -3.40625q0 -2.171875 1.28125 -3.5q1.296875 -1.34375 3.296875 -1.34375q2.1875 0 3.578125 1.6875q1.40625 1.6875 1.40625 5.53125q0 3.9375 -1.46875 5.671875q-1.453125 1.734375 -3.78125 1.734375q-1.6875 0 -2.71875 -0.890625q-1.03125 -0.890625 -1.328125 -2.671875zm6.21875 -6.0q0 -1.328125 -0.609375 -2.046875q-0.609375 -0.734375 -1.421875 -0.734375q-0.75 0 -1.265625 0.59375q-0.5 0.59375 -0.5 1.96875q0 1.390625 0.546875 2.046875q0.546875 0.640625 1.375 0.640625q0.78125 0 1.328125 -0.625q0.546875 -0.625 0.546875 -1.84375zm4.888672 5.625l2.734375 -0.28125q0.109375 0.9375 0.6875 1.484375q0.578125 0.53125 1.328125 0.53125q0.859375 0 1.453125 -0.6875q0.609375 -0.703125 0.609375 -2.109375q0 -1.328125 -0.59375 -1.984375q-0.59375 -0.65625 -1.546875 -0.65625q-1.171875 0 -2.109375 1.046875l-2.234375 -0.328125l1.40625 -7.453125l7.265625 0l0 2.578125l-5.1875 0l-0.421875 2.421875q0.921875 -0.453125 1.875 -0.453125q1.828125 0 3.09375 1.328125q1.265625 1.328125 1.265625 3.4375q0 1.78125 -1.015625 3.15625q-1.40625 1.90625 -3.890625 1.90625q-1.96875 0 -3.21875 -1.0625q-1.25 -1.078125 -1.5 -2.875z" fill-rule="nonzero"/><path fill="#010000" fill-opacity="0.0" d="m591.1554 148.60371l0 0l0 22.998047l0 0l0 -22.998047z" fill-rule="nonzero"/><path fill="#0000ff" d="m546.6632 168.00919l44.492188 0l0 1.800003l-44.492188 0l0 -1.800003z" fill-rule="nonzero"/><path fill="#000000" d="m477.37024 190.70918l0 -14.3125l1.765625 0l0 5.125q1.234375 -1.421875 3.109375 -1.421875q1.140625 0 1.984375 0.453125q0.859375 0.453125 1.21875 1.265625q0.375 0.796875 0.375 2.3125l0 6.578125l-1.75 0l0 -6.578125q0 -1.3125 -0.578125 -1.90625q-0.578125 -0.609375 -1.609375 -0.609375q-0.78125 0 -1.484375 0.40625q-0.6875 0.40625 -0.984375 1.109375q-0.28125 0.6875 -0.28125 1.90625l0 5.671875l-1.765625 0zm17.904297 -1.28125q-0.984375 0.828125 -1.890625 1.171875q-0.90625 0.34375 -1.9375 0.34375q-1.703125 0 -2.625 -0.828125q-0.921875 -0.84375 -0.921875 -2.140625q0 -0.765625 0.34375 -1.390625q0.359375 -0.625 0.921875 -1.0q0.5625 -0.390625 1.265625 -0.59375q0.515625 -0.125 1.5625 -0.265625q2.125 -0.25 3.125 -0.59375q0.015625 -0.359375 0.015625 -0.46875q0 -1.0625 -0.5 -1.515625q-0.671875 -0.59375 -2.0 -0.59375q-1.25 0 -1.84375 0.4375q-0.578125 0.4375 -0.859375 1.546875l-1.71875 -0.234375q0.234375 -1.109375 0.765625 -1.78125q0.53125 -0.6875 1.546875 -1.046875q1.015625 -0.375 2.359375 -0.375q1.328125 0 2.15625 0.3125q0.828125 0.3125 1.21875 0.796875q0.390625 0.46875 0.546875 1.1875q0.09375 0.453125 0.09375 1.625l0 2.34375q0 2.453125 0.109375 3.109375q0.109375 0.640625 0.453125 1.234375l-1.84375 0q-0.265625 -0.546875 -0.34375 -1.28125zm-0.15625 -3.921875q-0.953125 0.390625 -2.875 0.65625q-1.078125 0.15625 -1.53125 0.359375q-0.4375 0.1875 -0.6875 0.5625q-0.25 0.375 -0.25 0.84375q0 0.703125 0.53125 1.171875q0.53125 0.46875 1.5625 0.46875q1.015625 0 1.796875 -0.4375q0.796875 -0.453125 1.171875 -1.21875q0.28125 -0.609375 0.28125 -1.765625l0 -0.640625zm3.7949219 2.109375l1.75 -0.28125q0.140625 1.046875 0.8125 1.609375q0.671875 0.546875 1.875 0.546875q1.203125 0 1.78125 -0.484375q0.59375 -0.5 0.59375 -1.15625q0 -0.59375 -0.515625 -0.9375q-0.359375 -0.234375 -1.796875 -0.59375q-1.9375 -0.5 -2.6875 -0.84375q-0.734375 -0.359375 -1.125 -0.984375q-0.390625 -0.640625 -0.390625 -1.40625q0 -0.6875 0.3125 -1.28125q0.328125 -0.59375 0.875 -0.984375q0.40625 -0.296875 1.109375 -0.5q0.71875 -0.21875 1.53125 -0.21875q1.21875 0 2.140625 0.359375q0.921875 0.34375 1.359375 0.953125q0.4375 0.59375 0.609375 1.59375l-1.71875 0.234375q-0.125 -0.796875 -0.6875 -1.234375q-0.5625 -0.453125 -1.578125 -0.453125q-1.21875 0 -1.734375 0.40625q-0.515625 0.390625 -0.515625 0.921875q0 0.34375 0.21875 0.625q0.203125 0.28125 0.671875 0.46875q0.265625 0.09375 1.546875 0.4375q1.875 0.5 2.609375 0.828125q0.734375 0.3125 1.15625 0.921875q0.421875 0.59375 0.421875 1.5q0 0.875 -0.515625 1.65625q-0.515625 0.78125 -1.484375 1.203125q-0.96875 0.421875 -2.1875 0.421875q-2.015625 0 -3.078125 -0.84375q-1.0625 -0.84375 -1.359375 -2.484375zm10.703125 3.09375l0 -14.3125l1.765625 0l0 5.125q1.234375 -1.421875 3.109375 -1.421875q1.140625 0 1.984375 0.453125q0.859375 0.453125 1.21875 1.265625q0.375 0.796875 0.375 2.3125l0 6.578125l-1.75 0l0 -6.578125q0 -1.3125 -0.578125 -1.90625q-0.578125 -0.609375 -1.609375 -0.609375q-0.78125 0 -1.484375 0.40625q-0.6875 0.40625 -0.984375 1.109375q-0.28125 0.6875 -0.28125 1.90625l0 5.671875l-1.765625 0zm25.929688 -8.421875l-9.453125 0l0 -1.640625l9.453125 0l0 1.640625zm0 4.34375l-9.453125 0l0 -1.640625l9.453125 0l0 1.640625z" fill-rule="nonzero"/><path fill="#980000" d="m552.34485 188.16231l0 2.546875l-9.625 0q0.15625 -1.453125 0.9375 -2.734375q0.78125 -1.296875 3.078125 -3.4375q1.859375 -1.734375 2.28125 -2.34375q0.5625 -0.84375 0.5625 -1.6875q0 -0.90625 -0.5 -1.390625q-0.484375 -0.5 -1.34375 -0.5q-0.859375 0 -1.375 0.515625q-0.5 0.515625 -0.578125 1.71875l-2.734375 -0.28125q0.234375 -2.265625 1.515625 -3.25q1.296875 -0.984375 3.234375 -0.984375q2.125 0 3.328125 1.140625q1.21875 1.140625 1.21875 2.84375q0 0.96875 -0.359375 1.84375q-0.34375 0.875 -1.09375 1.828125q-0.5 0.640625 -1.796875 1.828125q-1.296875 1.1875 -1.640625 1.578125q-0.34375 0.390625 -0.5625 0.765625l5.453125 0zm8.873047 2.546875l-2.75 0l0 -10.34375q-1.5 1.40625 -3.546875 2.078125l0 -2.484375q1.078125 -0.359375 2.328125 -1.328125q1.265625 -0.984375 1.734375 -2.296875l2.234375 0l0 14.375zm4.154297 -3.3125l2.65625 -0.296875q0.09375 0.8125 0.5 1.203125q0.421875 0.390625 1.09375 0.390625q0.84375 0 1.4375 -0.78125q0.609375 -0.78125 0.765625 -3.234375q-1.03125 1.203125 -2.578125 1.203125q-1.6875 0 -2.921875 -1.296875q-1.21875 -1.3125 -1.21875 -3.40625q0 -2.171875 1.28125 -3.5q1.296875 -1.34375 3.296875 -1.34375q2.1875 0 3.578125 1.6875q1.40625 1.6875 1.40625 5.53125q0 3.9375 -1.46875 5.671875q-1.453125 1.734375 -3.78125 1.734375q-1.6875 0 -2.71875 -0.890625q-1.03125 -0.890625 -1.328125 -2.671875zm6.21875 -6.0q0 -1.328125 -0.609375 -2.046875q-0.609375 -0.734375 -1.421875 -0.734375q-0.75 0 -1.265625 0.59375q-0.5 0.59375 -0.5 1.96875q0 1.390625 0.546875 2.046875q0.546875 0.640625 1.375 0.640625q0.78125 0 1.328125 -0.625q0.546875 -0.625 0.546875 -1.84375zm9.482422 -5.0625q2.078125 0 3.25 1.484375q1.40625 1.75 1.40625 5.828125q0 4.0625 -1.40625 5.84375q-1.171875 1.46875 -3.25 1.46875q-2.078125 0 -3.359375 -1.609375q-1.28125 -1.609375 -1.28125 -5.734375q0 -4.046875 1.40625 -5.8125q1.15625 -1.46875 3.234375 -1.46875zm0 2.28125q-0.5 0 -0.890625 0.3125q-0.390625 0.3125 -0.59375 1.140625q-0.28125 1.0625 -0.28125 3.578125q0 2.515625 0.25 3.46875q0.25 0.9375 0.625 1.25q0.390625 0.3125 0.890625 0.3125q0.5 0 0.890625 -0.3125q0.390625 -0.328125 0.609375 -1.140625q0.28125 -1.0625 0.28125 -3.578125q0 -2.515625 -0.25 -3.453125q-0.25 -0.953125 -0.640625 -1.265625q-0.390625 -0.3125 -0.890625 -0.3125zm15.763672 9.546875l0 2.546875l-9.625 0q0.15625 -1.453125 0.9375 -2.734375q0.78125 -1.296875 3.078125 -3.4375q1.859375 -1.734375 2.28125 -2.34375q0.5625 -0.84375 0.5625 -1.6875q0 -0.90625 -0.5 -1.390625q-0.484375 -0.5 -1.34375 -0.5q-0.859375 0 -1.375 0.515625q-0.5 0.515625 -0.578125 1.71875l-2.734375 -0.28125q0.234375 -2.265625 1.515625 -3.25q1.296875 -0.984375 3.234375 -0.984375q2.125 0 3.328125 1.140625q1.21875 1.140625 1.21875 2.84375q0 0.96875 -0.359375 1.84375q-0.34375 0.875 -1.09375 1.828125q-0.5 0.640625 -1.796875 1.828125q-1.296875 1.1875 -1.640625 1.578125q-0.34375 0.390625 -0.5625 0.765625l5.453125 0zm11.123047 0l0 2.546875l-9.625 0q0.15625 -1.453125 0.9375 -2.734375q0.78125 -1.296875 3.078125 -3.4375q1.859375 -1.734375 2.28125 -2.34375q0.5625 -0.84375 0.5625 -1.6875q0 -0.90625 -0.5 -1.390625q-0.484375 -0.5 -1.34375 -0.5q-0.859375 0 -1.375 0.515625q-0.5 0.515625 -0.578125 1.71875l-2.734375 -0.28125q0.234375 -2.265625 1.515625 -3.25q1.296875 -0.984375 3.234375 -0.984375q2.125 0 3.328125 1.140625q1.21875 1.140625 1.21875 2.84375q0 0.96875 -0.359375 1.84375q-0.34375 0.875 -1.09375 1.828125q-0.5 0.640625 -1.796875 1.828125q-1.296875 1.1875 -1.640625 1.578125q-0.34375 0.390625 -0.5625 0.765625l5.453125 0zm11.123047 0l0 2.546875l-9.625 0q0.15625 -1.453125 0.9375 -2.734375q0.78125 -1.296875 3.078125 -3.4375q1.859375 -1.734375 2.28125 -2.34375q0.5625 -0.84375 0.5625 -1.6875q0 -0.90625 -0.5 -1.390625q-0.484375 -0.5 -1.34375 -0.5q-0.859375 0 -1.375 0.515625q-0.5 0.515625 -0.578125 1.71875l-2.734375 -0.28125q0.234375 -2.265625 1.515625 -3.25q1.296875 -0.984375 3.234375 -0.984375q2.125 0 3.328125 1.140625q1.21875 1.140625 1.21875 2.84375q0 0.96875 -0.359375 1.84375q-0.34375 0.875 -1.09375 1.828125q-0.5 0.640625 -1.796875 1.828125q-1.296875 1.1875 -1.640625 1.578125q-0.34375 0.390625 -0.5625 0.765625l5.453125 0z" fill-rule="nonzero"/><path fill="#000000" d="m477.37024 214.70918l0 -10.375l1.59375 0l0 1.484375q1.140625 -1.71875 3.296875 -1.71875q0.9375 0 1.71875 0.34375q0.796875 0.328125 1.1875 0.875q0.390625 0.546875 0.546875 1.296875q0.09375 0.5 0.09375 1.71875l0 6.375l-1.765625 0l0 -6.3125q0 -1.078125 -0.203125 -1.609375q-0.203125 -0.53125 -0.734375 -0.84375q-0.515625 -0.3125 -1.21875 -0.3125q-1.125 0 -1.9375 0.71875q-0.8125 0.703125 -0.8125 2.6875l0 5.671875l-1.765625 0zm18.232422 -3.34375l1.8125 0.234375q-0.421875 1.578125 -1.59375 2.46875q-1.15625 0.875 -2.96875 0.875q-2.265625 0 -3.609375 -1.390625q-1.328125 -1.40625 -1.328125 -3.9375q0 -2.625 1.34375 -4.0625q1.34375 -1.453125 3.5 -1.453125q2.078125 0 3.390625 1.421875q1.328125 1.40625 1.328125 3.984375q0 0.15625 -0.015625 0.46875l-7.734375 0q0.09375 1.703125 0.96875 2.609375q0.875 0.90625 2.171875 0.90625q0.96875 0 1.640625 -0.5q0.6875 -0.515625 1.09375 -1.625zm-5.78125 -2.84375l5.796875 0q-0.109375 -1.296875 -0.65625 -1.953125q-0.84375 -1.015625 -2.1875 -1.015625q-1.203125 0 -2.03125 0.8125q-0.828125 0.796875 -0.921875 2.15625zm8.623047 6.1875l3.796875 -5.390625l-3.5 -4.984375l2.1875 0l1.59375 2.4375q0.453125 0.6875 0.71875 1.15625q0.4375 -0.640625 0.796875 -1.140625l1.75 -2.453125l2.09375 0l-3.578125 4.890625l3.859375 5.484375l-2.15625 0l-2.140625 -3.21875l-0.5625 -0.875l-2.71875 4.09375l-2.140625 0zm15.015625 -1.578125l0.25 1.5625q-0.734375 0.15625 -1.328125 0.15625q-0.953125 0 -1.484375 -0.296875q-0.515625 -0.3125 -0.734375 -0.796875q-0.21875 -0.5 -0.21875 -2.078125l0 -5.96875l-1.28125 0l0 -1.375l1.28125 0l0 -2.5625l1.75 -1.0625l0 3.625l1.765625 0l0 1.375l-1.765625 0l0 6.0625q0 0.75 0.09375 0.96875q0.09375 0.203125 0.296875 0.34375q0.21875 0.125 0.609375 0.125q0.28125 0 0.765625 -0.078125zm16.519531 -6.84375l-9.453125 0l0 -1.640625l9.453125 0l0 1.640625zm0 4.34375l-9.453125 0l0 -1.640625l9.453125 0l0 1.640625zm7.986328 4.078125l0 -10.375l1.59375 0l0 1.484375q1.140625 -1.71875 3.296875 -1.71875q0.9375 0 1.71875 0.34375q0.796875 0.328125 1.1875 0.875q0.390625 0.546875 0.546875 1.296875q0.09375 0.5 0.09375 1.71875l0 6.375l-1.765625 0l0 -6.3125q0 -1.078125 -0.203125 -1.609375q-0.203125 -0.53125 -0.734375 -0.84375q-0.515625 -0.3125 -1.21875 -0.3125q-1.125 0 -1.9375 0.71875q-0.8125 0.703125 -0.8125 2.6875l0 5.671875l-1.765625 0zm17.919922 0l0 -1.53125q-1.203125 1.765625 -3.28125 1.765625q-0.921875 0 -1.71875 -0.34375q-0.796875 -0.359375 -1.1875 -0.890625q-0.375 -0.53125 -0.53125 -1.3125q-0.109375 -0.515625 -0.109375 -1.640625l0 -6.421875l1.75 0l0 5.75q0 1.375 0.109375 1.859375q0.171875 0.6875 0.703125 1.09375q0.546875 0.390625 1.328125 0.390625q0.796875 0 1.484375 -0.40625q0.703125 -0.40625 0.984375 -1.09375q0.296875 -0.703125 0.296875 -2.03125l0 -5.5625l1.75 0l0 10.375l-1.578125 0zm4.294922 0l0 -14.3125l1.75 0l0 14.3125l-1.75 0zm4.4433594 0l0 -14.3125l1.75 0l0 14.3125l-1.75 0z" fill-rule="nonzero"/><path fill="#cccccc" d="m43.845146 35.824146l39.81102 0l0 24.031498l-39.81102 0z" fill-rule="evenodd"/><path stroke="#000000" stroke-width="2.0" stroke-linejoin="round" stroke-linecap="butt" d="m43.845146 35.824146l39.81102 0l0 24.031498l-39.81102 0z" fill-rule="evenodd"/><path fill="#000000" fill-opacity="0.0" d="m43.654854 -0.51968503l40.0 0l0 40.0l-40.0 0z" fill-rule="evenodd"/><path fill="#000000" d="m65.42012 26.400312l-1.640625 0l0 -10.453124q-0.59375 0.56249905 -1.5625 1.140624q-0.953125 0.5625 -1.71875 0.84375l0 -1.59375q1.375 -0.64062405 2.40625 -1.562499q1.03125 -0.921875 1.453125 -1.78125l1.0625 0l0 13.406249z" fill-rule="nonzero"/><path fill="#cccccc" d="m83.845146 35.824146l39.81102 0l0 24.031498l-39.81102 0z" fill-rule="evenodd"/><path stroke="#000000" stroke-width="2.0" stroke-linejoin="round" stroke-linecap="butt" d="m83.845146 35.824146l39.81102 0l0 24.031498l-39.81102 0z" fill-rule="evenodd"/><path fill="#000000" fill-opacity="0.0" d="m83.654854 -0.51968503l40.0 0l0 40.0l-40.0 0z" fill-rule="evenodd"/><path fill="#000000" d="m107.85762 24.822187l0 1.578125l-8.828125 0q-0.015625 -0.59375 0.1875 -1.140625q0.34375 -0.90625 1.078125 -1.78125q0.75 -0.875 2.15625 -2.015625q2.171875 -1.78125 2.9375 -2.828125q0.765625 -1.046875 0.765625 -1.96875q0 -0.98437405 -0.703125 -1.640624q-0.6875 -0.671875 -1.8125 -0.671875q-1.1875 0 -1.90625 0.71875q-0.703125 0.703125 -0.703125 1.953124l-1.6875 -0.171875q0.171875 -1.890624 1.296875 -2.874999q1.140625 -0.984375 3.03125 -0.984375q1.921875 0 3.046875 1.0625q1.125 1.0625 1.125 2.640624q0 0.796875 -0.328125 1.578125q-0.328125 0.78125 -1.09375 1.640625q-0.75 0.84375 -2.53125 2.34375q-1.46875 1.234375 -1.890625 1.6875q-0.421875 0.4375 -0.6875 0.875l6.546875 0z" fill-rule="nonzero"/><path fill="#cccccc" d="m123.845146 35.824146l39.811028 0l0 24.031498l-39.811028 0z" fill-rule="evenodd"/><path stroke="#000000" stroke-width="2.0" stroke-linejoin="round" stroke-linecap="butt" d="m123.845146 35.824146l39.811028 0l0 24.031498l-39.811028 0z" fill-rule="evenodd"/><path fill="#000000" fill-opacity="0.0" d="m123.654854 -0.51968503l40.000008 0l0 40.0l-40.000008 0z" fill-rule="evenodd"/><path fill="#000000" d="m139.24825 22.869062l1.640625 -0.21875q0.28125 1.40625 0.953125 2.015625q0.6875 0.609375 1.65625 0.609375q1.15625 0 1.953125 -0.796875q0.796875 -0.796875 0.796875 -1.984375q0 -1.125 -0.734375 -1.859375q-0.734375 -0.734375 -1.875 -0.734375q-0.46875 0 -1.15625 0.171875l0.1875 -1.4375q0.15625 0.015625 0.265625 0.015625q1.046875 0 1.875 -0.546875q0.84375 -0.546875 0.84375 -1.671875q0 -0.90624905 -0.609375 -1.499999q-0.609375 -0.59375 -1.578125 -0.59375q-0.953125 0 -1.59375 0.609375q-0.640625 0.59375 -0.8125 1.796874l-1.640625 -0.296875q0.296875 -1.640624 1.359375 -2.546874q1.0625 -0.90625 2.65625 -0.90625q1.09375 0 2.0 0.46875q0.921875 0.46875 1.40625 1.28125q0.5 0.8125 0.5 1.718749q0 0.859375 -0.46875 1.578125q-0.46875 0.703125 -1.375 1.125q1.1875 0.28125 1.84375 1.140625q0.65625 0.859375 0.65625 2.15625q0 1.734375 -1.28125 2.953125q-1.265625 1.21875 -3.21875 1.21875q-1.765625 0 -2.921875 -1.046875q-1.15625 -1.046875 -1.328125 -2.71875z" fill-rule="nonzero"/><path fill="#cccccc" d="m163.84514 35.824146l39.811035 0l0 24.031498l-39.811035 0z" fill-rule="evenodd"/><path stroke="#000000" stroke-width="2.0" stroke-linejoin="round" stroke-linecap="butt" d="m163.84514 35.824146l39.811035 0l0 24.031498l-39.811035 0z" fill-rule="evenodd"/><path fill="#000000" fill-opacity="0.0" d="m163.65486 -0.51968503l40.0 0l0 40.0l-40.0 0z" fill-rule="evenodd"/><path fill="#000000" d="m184.49825 26.400312l0 -3.203125l-5.796875 0l0 -1.5l6.09375 -8.656249l1.34375 0l0 8.656249l1.796875 0l0 1.5l-1.796875 0l0 3.203125l-1.640625 0zm0 -4.703125l0 -6.015624l-4.1875 6.015624l4.1875 0z" fill-rule="nonzero"/><path fill="#cccccc" d="m203.84514 35.824146l39.811035 0l0 24.031498l-39.811035 0z" fill-rule="evenodd"/><path stroke="#000000" stroke-width="2.0" stroke-linejoin="round" stroke-linecap="butt" d="m203.84514 35.824146l39.811035 0l0 24.031498l-39.811035 0z" fill-rule="evenodd"/><path fill="#000000" fill-opacity="0.0" d="m203.65486 -0.51968503l40.0 0l0 40.0l-40.0 0z" fill-rule="evenodd"/><path fill="#000000" d="m219.24825 22.900312l1.71875 -0.140625q0.1875 1.25 0.875 1.890625q0.703125 0.625 1.6875 0.625q1.1875 0 2.0 -0.890625q0.828125 -0.890625 0.828125 -2.359375q0 -1.40625 -0.796875 -2.21875q-0.78125 -0.8125 -2.0625 -0.8125q-0.78125 0 -1.421875 0.359375q-0.640625 0.359375 -1.0 0.9375l-1.546875 -0.203125l1.296875 -6.859374l6.640625 0l0 1.5625l-5.328125 0l-0.71875 3.593749q1.203125 -0.84375 2.515625 -0.84375q1.75 0 2.953125 1.21875q1.203125 1.203125 1.203125 3.109375q0 1.8125 -1.046875 3.140625q-1.296875 1.625 -3.515625 1.625q-1.8125 0 -2.96875 -1.015625q-1.15625 -1.03125 -1.3125 -2.71875z" fill-rule="nonzero"/><path fill="#cccccc" d="m243.84514 35.824146l39.81102 0l0 24.031498l-39.81102 0z" fill-rule="evenodd"/><path stroke="#000000" stroke-width="2.0" stroke-linejoin="round" stroke-linecap="butt" d="m243.84514 35.824146l39.81102 0l0 24.031498l-39.81102 0z" fill-rule="evenodd"/><path fill="#000000" fill-opacity="0.0" d="m243.65486 -0.51968503l39.999985 0l0 40.0l-39.999985 0z" fill-rule="evenodd"/><path fill="#000000" d="m267.74826 16.322187l-1.625 0.125q-0.21875 -0.96874905 -0.625 -1.406249q-0.65625 -0.703125 -1.640625 -0.703125q-0.78125 0 -1.375 0.4375q-0.765625 0.5625 -1.21875 1.656249q-0.453125 1.078125 -0.46875 3.078125q0.59375 -0.890625 1.453125 -1.328125q0.859375 -0.4375 1.796875 -0.4375q1.640625 0 2.78125 1.203125q1.15625 1.203125 1.15625 3.109375q0 1.265625 -0.546875 2.34375q-0.53125 1.078125 -1.484375 1.65625q-0.9375 0.578125 -2.140625 0.578125q-2.0625 0 -3.359375 -1.5q-1.28125 -1.515625 -1.28125 -4.984375q0 -3.875 1.421875 -5.624999q1.25 -1.53125 3.375 -1.53125q1.5625 0 2.5625 0.890625q1.015625 0.875 1.21875 2.437499zm-6.6875 5.75q0 0.84375 0.359375 1.625q0.359375 0.765625 1.0 1.171875q0.640625 0.40625 1.359375 0.40625q1.03125 0 1.78125 -0.828125q0.75 -0.84375 0.75 -2.28125q0 -1.390625 -0.734375 -2.1875q-0.734375 -0.796875 -1.859375 -0.796875q-1.109375 0 -1.890625 0.796875q-0.765625 0.796875 -0.765625 2.09375z" fill-rule="nonzero"/><path fill="#cccccc" d="m283.84515 35.824146l39.811005 0l0 24.031498l-39.811005 0z" fill-rule="evenodd"/><path stroke="#000000" stroke-width="2.0" stroke-linejoin="round" stroke-linecap="butt" d="m283.84515 35.824146l39.811005 0l0 24.031498l-39.811005 0z" fill-rule="evenodd"/><path fill="#000000" fill-opacity="0.0" d="m283.65485 -0.51968503l40.0 0l0 40.0l-40.0 0z" fill-rule="evenodd"/><path fill="#000000" d="m299.35764 14.790938l0 -1.578125l8.640625 0l0 1.28125q-1.28125 1.359375 -2.53125 3.609374q-1.25 2.25 -1.9375 4.625q-0.484375 1.671875 -0.625 3.671875l-1.6875 0q0.03125 -1.578125 0.625 -3.8125q0.59375 -2.234375 1.6875 -4.296875q1.109375 -2.078125 2.359375 -3.499999l-6.53125 0z" fill-rule="nonzero"/><path fill="#cccccc" d="m323.84515 35.824146l39.811005 0l0 24.031498l-39.811005 0z" fill-rule="evenodd"/><path stroke="#000000" stroke-width="2.0" stroke-linejoin="round" stroke-linecap="butt" d="m323.84515 35.824146l39.811005 0l0 24.031498l-39.811005 0z" fill-rule="evenodd"/><path fill="#000000" fill-opacity="0.0" d="m323.65485 -0.51968503l40.0 0l0 40.0l-40.0 0z" fill-rule="evenodd"/><path fill="#000000" d="m341.7639 19.165937q-1.015625 -0.375 -1.515625 -1.0625q-0.484375 -0.703125 -0.484375 -1.671875q0 -1.453124 1.046875 -2.437499q1.046875 -1.0 2.78125 -1.0q1.75 0 2.8125 1.015625q1.078125 1.015625 1.078125 2.468749q0 0.9375 -0.5 1.625q-0.484375 0.6875 -1.46875 1.0625q1.21875 0.390625 1.859375 1.28125q0.65625 0.890625 0.65625 2.140625q0 1.703125 -1.21875 2.875q-1.21875 1.171875 -3.1875 1.171875q-1.984375 0 -3.203125 -1.171875q-1.203125 -1.171875 -1.203125 -2.921875q0 -1.3125 0.65625 -2.1875q0.671875 -0.875 1.890625 -1.1875zm-0.328125 -2.78125q0 0.9375 0.609375 1.546875q0.609375 0.59375 1.59375 0.59375q0.9375 0 1.546875 -0.59375q0.609375 -0.59375 0.609375 -1.453125q0 -0.90624905 -0.625 -1.515624q-0.625 -0.625 -1.5625 -0.625q-0.9375 0 -1.5625 0.609375q-0.609375 0.59375 -0.609375 1.437499zm-0.53125 6.15625q0 0.703125 0.328125 1.359375q0.34375 0.65625 1.0 1.015625q0.65625 0.359375 1.40625 0.359375q1.171875 0 1.9375 -0.75q0.765625 -0.75 0.765625 -1.921875q0 -1.1875 -0.796875 -1.953125q-0.78125 -0.78125 -1.953125 -0.78125q-1.15625 0 -1.921875 0.765625q-0.765625 0.765625 -0.765625 1.90625z" fill-rule="nonzero"/><path fill="#cccccc" d="m363.84515 35.824146l39.811005 0l0 24.031498l-39.811005 0z" fill-rule="evenodd"/><path stroke="#000000" stroke-width="2.0" stroke-linejoin="round" stroke-linecap="butt" d="m363.84515 35.824146l39.811005 0l0 24.031498l-39.811005 0z" fill-rule="evenodd"/><path fill="#000000" fill-opacity="0.0" d="m363.65485 -0.51968503l40.0 0l0 40.0l-40.0 0z" fill-rule="evenodd"/><path fill="#000000" d="m379.48264 23.306562l1.578125 -0.140625q0.203125 1.109375 0.765625 1.609375q0.5625 0.5 1.453125 0.5q0.75 0 1.3125 -0.34375q0.578125 -0.34375 0.9375 -0.921875q0.375 -0.578125 0.609375 -1.5625q0.25 -0.984375 0.25 -2.0q0 -0.109375 0 -0.328125q-0.5 0.78125 -1.359375 1.265625q-0.84375 0.484375 -1.828125 0.484375q-1.671875 0 -2.8125 -1.203125q-1.140625 -1.203125 -1.140625 -3.171875q0 -2.031249 1.1875 -3.265624q1.203125 -1.234375 3.0 -1.234375q1.3125 0 2.390625 0.703125q1.078125 0.703125 1.640625 2.0q0.5625 1.296874 0.5625 3.749999q0 2.5625 -0.5625 4.078125q-0.5625 1.515625 -1.65625 2.3125q-1.09375 0.796875 -2.578125 0.796875q-1.5625 0 -2.5625 -0.875q-0.984375 -0.875 -1.1875 -2.453125zm6.71875 -5.890625q0 -1.40625 -0.75 -2.234374q-0.75 -0.828125 -1.8125 -0.828125q-1.09375 0 -1.90625 0.890625q-0.8125 0.89062405 -0.8125 2.312499q0 1.28125 0.765625 2.078125q0.78125 0.796875 1.90625 0.796875q1.140625 0 1.875 -0.796875q0.734375 -0.796875 0.734375 -2.21875z" fill-rule="nonzero"/><path fill="#cccccc" d="m403.84515 35.824146l39.811005 0l0 24.031498l-39.811005 0z" fill-rule="evenodd"/><path stroke="#000000" stroke-width="2.0" stroke-linejoin="round" stroke-linecap="butt" d="m403.84515 35.824146l39.811005 0l0 24.031498l-39.811005 0z" fill-rule="evenodd"/><path fill="#000000" fill-opacity="0.0" d="m403.65485 -0.51968503l40.0 0l0 40.0l-40.0 0z" fill-rule="evenodd"/><path fill="#000000" d="m420.23227 26.400312l-1.640625 0l0 -10.453124q-0.59375 0.56249905 -1.5625 1.140624q-0.953125 0.5625 -1.71875 0.84375l0 -1.59375q1.375 -0.64062405 2.40625 -1.562499q1.03125 -0.921875 1.453125 -1.78125l1.0625 0l0 13.406249zm4.203827 -6.59375q0 -2.359375 0.484375 -3.796875q0.484375 -1.453124 1.4375 -2.234374q0.96875 -0.78125 2.421875 -0.78125q1.078125 0 1.890625 0.4375q0.8125 0.421875 1.328125 1.25q0.53125 0.8125 0.828125 1.984374q0.3125 1.15625 0.3125 3.140625q0 2.359375 -0.484375 3.8125q-0.484375 1.4375 -1.453125 2.234375q-0.953125 0.78125 -2.421875 0.78125q-1.921875 0 -3.03125 -1.390625q-1.3125 -1.671875 -1.3125 -5.4375zm1.671875 0q0 3.296875 0.765625 4.390625q0.78125 1.078125 1.90625 1.078125q1.140625 0 1.90625 -1.09375q0.765625 -1.09375 0.765625 -4.375q0 -3.296875 -0.765625 -4.374999q-0.765625 -1.078125 -1.921875 -1.078125q-1.125 0 -1.796875 0.953125q-0.859375 1.218749 -0.859375 4.499999z" fill-rule="nonzero"/><path fill="#cccccc" d="m443.84515 35.824146l39.811005 0l0 24.031498l-39.811005 0z" fill-rule="evenodd"/><path stroke="#000000" stroke-width="2.0" stroke-linejoin="round" stroke-linecap="butt" d="m443.84515 35.824146l39.811005 0l0 24.031498l-39.811005 0z" fill-rule="evenodd"/><path fill="#000000" fill-opacity="0.0" d="m443.65485 -0.51968503l40.0 0l0 40.0l-40.0 0z" fill-rule="evenodd"/><path fill="#000000" d="m460.925 26.400312l-1.640625 0l0 -10.453124q-0.59375 0.56249905 -1.5625 1.140624q-0.953125 0.5625 -1.71875 0.84375l0 -1.59375q1.375 -0.64062405 2.40625 -1.562499q1.03125 -0.921875 1.453125 -1.78125l1.0625 0l0 13.406249zm8.990295 0l-1.640625 0l0 -10.453124q-0.59375 0.56249905 -1.5625 1.140624q-0.953125 0.5625 -1.71875 0.84375l0 -1.59375q1.375 -0.64062405 2.40625 -1.562499q1.03125 -0.921875 1.453125 -1.78125l1.0625 0l0 13.406249z" fill-rule="nonzero"/><path fill="#cccccc" d="m483.84515 35.824146l39.811035 0l0 24.031498l-39.811035 0z" fill-rule="evenodd"/><path stroke="#000000" stroke-width="2.0" stroke-linejoin="round" stroke-linecap="butt" d="m483.84515 35.824146l39.811035 0l0 24.031498l-39.811035 0z" fill-rule="evenodd"/><path fill="#000000" fill-opacity="0.0" d="m483.65485 -0.51968503l40.0 0l0 40.0l-40.0 0z" fill-rule="evenodd"/><path fill="#000000" d="m500.23227 26.400312l-1.640625 0l0 -10.453124q-0.59375 0.56249905 -1.5625 1.140624q-0.953125 0.5625 -1.71875 0.84375l0 -1.59375q1.375 -0.64062405 2.40625 -1.562499q1.03125 -0.921875 1.453125 -1.78125l1.0625 0l0 13.406249zm12.813202 -1.578125l0 1.578125l-8.828125 0q-0.015625 -0.59375 0.1875 -1.140625q0.34375 -0.90625 1.078125 -1.78125q0.75 -0.875 2.15625 -2.015625q2.171875 -1.78125 2.9375 -2.828125q0.765625 -1.046875 0.765625 -1.96875q0 -0.98437405 -0.703125 -1.640624q-0.6875 -0.671875 -1.8125 -0.671875q-1.1875 0 -1.90625 0.71875q-0.703125 0.703125 -0.703125 1.953124l-1.6875 -0.171875q0.171875 -1.890624 1.296875 -2.874999q1.140625 -0.984375 3.03125 -0.984375q1.921875 0 3.046875 1.0625q1.125 1.0625 1.125 2.640624q0 0.796875 -0.328125 1.578125q-0.328125 0.78125 -1.09375 1.640625q-0.75 0.84375 -2.53125 2.34375q-1.46875 1.234375 -1.890625 1.6875q-0.421875 0.4375 -0.6875 0.875l6.546875 0z" fill-rule="nonzero"/><path fill="#cccccc" d="m523.84515 35.824146l39.811035 0l0 24.031498l-39.811035 0z" fill-rule="evenodd"/><path stroke="#000000" stroke-width="2.0" stroke-linejoin="round" stroke-linecap="butt" d="m523.84515 35.824146l39.811035 0l0 24.031498l-39.811035 0z" fill-rule="evenodd"/><path fill="#000000" fill-opacity="0.0" d="m523.65485 -0.51968503l40.0 0l0 40.0l-40.0 0z" fill-rule="evenodd"/><path fill="#000000" d="m540.23224 26.400312l-1.640625 0l0 -10.453124q-0.59375 0.56249905 -1.5625 1.140624q-0.953125 0.5625 -1.71875 0.84375l0 -1.59375q1.375 -0.64062405 2.40625 -1.562499q1.03125 -0.921875 1.453125 -1.78125l1.0625 0l0 13.406249zm4.2038574 -3.53125l1.640625 -0.21875q0.28125 1.40625 0.953125 2.015625q0.6875 0.609375 1.65625 0.609375q1.15625 0 1.953125 -0.796875q0.796875 -0.796875 0.796875 -1.984375q0 -1.125 -0.734375 -1.859375q-0.734375 -0.734375 -1.875 -0.734375q-0.46875 0 -1.15625 0.171875l0.1875 -1.4375q0.15625 0.015625 0.265625 0.015625q1.046875 0 1.875 -0.546875q0.84375 -0.546875 0.84375 -1.671875q0 -0.90624905 -0.609375 -1.499999q-0.609375 -0.59375 -1.578125 -0.59375q-0.953125 0 -1.59375 0.609375q-0.640625 0.59375 -0.8125 1.796874l-1.640625 -0.296875q0.296875 -1.640624 1.359375 -2.546874q1.0625 -0.90625 2.65625 -0.90625q1.09375 0 2.0 0.46875q0.921875 0.46875 1.40625 1.28125q0.5 0.8125 0.5 1.718749q0 0.859375 -0.46875 1.578125q-0.46875 0.703125 -1.375 1.125q1.1875 0.28125 1.84375 1.140625q0.65625 0.859375 0.65625 2.15625q0 1.734375 -1.28125 2.953125q-1.265625 1.21875 -3.21875 1.21875q-1.765625 0 -2.921875 -1.046875q-1.15625 -1.046875 -1.328125 -2.71875z" fill-rule="nonzero"/><path fill="#4a86e8" d="m563.84515 35.824146l39.811035 0l0 24.031498l-39.811035 0z" fill-rule="evenodd"/><path stroke="#000000" stroke-width="2.0" stroke-linejoin="round" stroke-linecap="butt" d="m563.84515 35.824146l39.811035 0l0 24.031498l-39.811035 0z" fill-rule="evenodd"/><path fill="#000000" fill-opacity="0.0" d="m563.65485 -0.51968503l40.0 0l0 40.0l-40.0 0z" fill-rule="evenodd"/><path fill="#000000" d="m580.23224 26.400312l-1.640625 0l0 -10.453124q-0.59375 0.56249905 -1.5625 1.140624q-0.953125 0.5625 -1.71875 0.84375l0 -1.59375q1.375 -0.64062405 2.40625 -1.562499q1.03125 -0.921875 1.453125 -1.78125l1.0625 0l0 13.406249zm9.453857 0l0 -3.203125l-5.796875 0l0 -1.5l6.09375 -8.656249l1.34375 0l0 8.656249l1.796875 0l0 1.5l-1.796875 0l0 3.203125l-1.640625 0zm0 -4.703125l0 -6.015624l-4.1875 6.015624l4.1875 0z" fill-rule="nonzero"/><path fill="#cccccc" d="m603.84515 35.824146l39.811035 0l0 24.031498l-39.811035 0z" fill-rule="evenodd"/><path stroke="#000000" stroke-width="2.0" stroke-linejoin="round" stroke-linecap="butt" d="m603.84515 35.824146l39.811035 0l0 24.031498l-39.811035 0z" fill-rule="evenodd"/><path fill="#000000" fill-opacity="0.0" d="m603.65485 -0.51968503l40.0 0l0 40.0l-40.0 0z" fill-rule="evenodd"/><path fill="#000000" d="m620.23224 26.400312l-1.640625 0l0 -10.453124q-0.59375 0.56249905 -1.5625 1.140624q-0.953125 0.5625 -1.71875 0.84375l0 -1.59375q1.375 -0.64062405 2.40625 -1.562499q1.03125 -0.921875 1.453125 -1.78125l1.0625 0l0 13.406249zm4.2038574 -3.5l1.71875 -0.140625q0.1875 1.25 0.875 1.890625q0.703125 0.625 1.6875 0.625q1.1875 0 2.0 -0.890625q0.828125 -0.890625 0.828125 -2.359375q0 -1.40625 -0.796875 -2.21875q-0.78125 -0.8125 -2.0625 -0.8125q-0.78125 0 -1.421875 0.359375q-0.640625 0.359375 -1.0 0.9375l-1.546875 -0.203125l1.296875 -6.859374l6.640625 0l0 1.5625l-5.328125 0l-0.71875 3.593749q1.203125 -0.84375 2.515625 -0.84375q1.75 0 2.953125 1.21875q1.203125 1.203125 1.203125 3.109375q0 1.8125 -1.046875 3.140625q-1.296875 1.625 -3.515625 1.625q-1.8125 0 -2.96875 -1.015625q-1.15625 -1.03125 -1.3125 -2.71875z" fill-rule="nonzero"/><path fill="#ffffff" d="m467.05774 100.333336l80.8819 0l0 23.181099l-80.8819 0z" fill-rule="evenodd"/><path stroke="#000000" stroke-width="2.0" stroke-linejoin="round" stroke-linecap="butt" d="m467.05774 100.333336l80.8819 0l0 23.181099l-80.8819 0z" fill-rule="evenodd"/><path fill="#000000" d="m487.19574 118.84388l0 -13.359375l9.65625 0l0 1.578125l-7.875 0l0 4.09375l7.375 0l0 1.5625l-7.375 0l0 4.546875l8.1875 0l0 1.578125l-9.96875 0zm12.209198 0l0 -9.671875l1.46875 0l0 1.375q1.0625 -1.59375 3.078125 -1.59375q0.875 0 1.609375 0.3125q0.734375 0.3125 1.09375 0.828125q0.375 0.5 0.515625 1.203125q0.09375 0.453125 0.09375 1.59375l0 5.953125l-1.640625 0l0 -5.890625q0 -1.0 -0.203125 -1.484375q-0.1875 -0.5 -0.671875 -0.796875q-0.484375 -0.296875 -1.140625 -0.296875q-1.046875 0 -1.8125 0.671875q-0.75 0.65625 -0.75 2.515625l0 5.28125l-1.640625 0zm13.953827 -1.46875l0.234375 1.453125q-0.6875 0.140625 -1.234375 0.140625q-0.890625 0 -1.390625 -0.28125q-0.484375 -0.28125 -0.6875 -0.734375q-0.203125 -0.46875 -0.203125 -1.9375l0 -5.578125l-1.203125 0l0 -1.265625l1.203125 0l0 -2.390625l1.625 -0.984375l0 3.375l1.65625 0l0 1.265625l-1.65625 0l0 5.671875q0 0.6875 0.078125 0.890625q0.09375 0.203125 0.28125 0.328125q0.203125 0.109375 0.578125 0.109375q0.265625 0 0.71875 -0.0625zm1.5895386 1.46875l0 -9.671875l1.46875 0l0 1.46875q0.5625 -1.03125 1.03125 -1.359375q0.484375 -0.328125 1.0625 -0.328125q0.828125 0 1.6875 0.53125l-0.5625 1.515625q-0.609375 -0.359375 -1.203125 -0.359375q-0.546875 0 -0.96875 0.328125q-0.421875 0.328125 -0.609375 0.890625q-0.28125 0.875 -0.28125 1.921875l0 5.0625l-1.625 0zm6.1502075 3.71875l-0.1875 -1.53125q0.546875 0.140625 0.9375 0.140625q0.546875 0 0.875 -0.1875q0.328125 -0.171875 0.546875 -0.5q0.15625 -0.25 0.5 -1.21875q0.046875 -0.140625 0.140625 -0.40625l-3.671875 -9.6875l1.765625 0l2.015625 5.59375q0.390625 1.078125 0.703125 2.25q0.28125 -1.125 0.671875 -2.203125l2.078125 -5.640625l1.640625 0l-3.6875 9.828125q-0.59375 1.609375 -0.921875 2.203125q-0.4375 0.8125 -1.0 1.1875q-0.5625 0.375 -1.34375 0.375q-0.484375 0 -1.0625 -0.203125z" fill-rule="nonzero"/><path fill="#000000" fill-opacity="0.0" d="m583.7507 59.855644l0 20.238647l-316.40945 0l0 20.233795" fill-rule="evenodd"/><path stroke="#000000" stroke-width="2.0" stroke-linejoin="round" stroke-linecap="butt" d="m583.7507 59.855644l0 20.238647l-316.40945 0l0 13.379616" fill-rule="evenodd"/><path fill="#000000" stroke="#000000" stroke-width="2.0" stroke-linecap="butt" d="m267.34122 93.47391l-2.249176 -2.2491608l2.249176 6.179535l2.2491455 -6.179535z" fill-rule="evenodd"/><path fill="#ffffff" d="m226.90552 100.333336l80.8819 0l0 23.181099l-80.8819 0z" fill-rule="evenodd"/><path stroke="#000000" stroke-width="2.0" stroke-linejoin="round" stroke-linecap="butt" d="m226.90552 100.333336l80.8819 0l0 23.181099l-80.8819 0z" fill-rule="evenodd"/><path fill="#000000" d="m247.0435 118.84388l0 -13.359375l9.656265 0l0 1.578125l-7.8750153 0l0 4.09375l7.3750153 0l0 1.5625l-7.3750153 0l0 4.546875l8.187515 0l0 1.578125l-9.968765 0zm12.209213 0l0 -9.671875l1.46875 0l0 1.375q1.0625 -1.59375 3.078125 -1.59375q0.875 0 1.609375 0.3125q0.734375 0.3125 1.09375 0.828125q0.375 0.5 0.515625 1.203125q0.09375 0.453125 0.09375 1.59375l0 5.953125l-1.640625 0l0 -5.890625q0 -1.0 -0.203125 -1.484375q-0.1875 -0.5 -0.671875 -0.796875q-0.484375 -0.296875 -1.140625 -0.296875q-1.046875 0 -1.8125 0.671875q-0.75 0.65625 -0.75 2.515625l0 5.28125l-1.640625 0zm13.953827 -1.46875l0.234375 1.453125q-0.6875 0.140625 -1.234375 0.140625q-0.890625 0 -1.390625 -0.28125q-0.484375 -0.28125 -0.6875 -0.734375q-0.203125 -0.46875 -0.203125 -1.9375l0 -5.578125l-1.203125 0l0 -1.265625l1.203125 0l0 -2.390625l1.625 -0.984375l0 3.375l1.65625 0l0 1.265625l-1.65625 0l0 5.671875q0 0.6875 0.078125 0.890625q0.09375 0.203125 0.28125 0.328125q0.203125 0.109375 0.578125 0.109375q0.265625 0 0.71875 -0.0625zm1.5895691 1.46875l0 -9.671875l1.46875 0l0 1.46875q0.5625 -1.03125 1.03125 -1.359375q0.484375 -0.328125 1.0625 -0.328125q0.828125 0 1.6875 0.53125l-0.5625 1.515625q-0.609375 -0.359375 -1.203125 -0.359375q-0.546875 0 -0.96875 0.328125q-0.421875 0.328125 -0.609375 0.890625q-0.28125 0.875 -0.28125 1.921875l0 5.0625l-1.625 0zm6.150177 3.71875l-0.1875 -1.53125q0.546875 0.140625 0.9375 0.140625q0.546875 0 0.875 -0.1875q0.328125 -0.171875 0.546875 -0.5q0.15625 -0.25 0.5 -1.21875q0.046875 -0.140625 0.140625 -0.40625l-3.671875 -9.6875l1.765625 0l2.015625 5.59375q0.390625 1.078125 0.703125 2.25q0.28125 -1.125 0.671875 -2.203125l2.078125 -5.640625l1.640625 0l-3.6875 9.828125q-0.59375 1.609375 -0.921875 2.203125q-0.4375 0.8125 -1.0 1.1875q-0.5625 0.375 -1.34375 0.375q-0.484375 0 -1.0625 -0.203125z" fill-rule="nonzero"/><path fill="#000000" fill-opacity="0.0" d="m298.23883 207.16798l144.68793 0l0 -95.2441l24.130981 0" fill-rule="evenodd"/><path stroke="#ffffff" stroke-width="4.0" stroke-linejoin="round" stroke-linecap="butt" d="m313.39883 207.16798l129.52792 0l0 -95.2441l10.422638 0" fill-rule="evenodd"/><path fill="#ffffff" stroke="#ffffff" stroke-width="4.0" stroke-linecap="butt" d="m300.23883 207.16798c0 -3.6340332 2.945984 -6.580002 6.580017 -6.580002c3.6340332 0 6.5799866 2.9459686 6.5799866 6.580002c0 3.6340332 -2.9459534 6.580002 -6.5799866 6.580002c-3.6340332 0 -6.580017 -2.9459686 -6.580017 -6.580002z" fill-rule="nonzero"/><path fill="#ffffff" stroke="#ffffff" stroke-width="4.0" stroke-linecap="butt" d="m453.3494 111.92388l-4.4983215 4.498337l12.35907 -4.498337l-12.35907 -4.498329z" fill-rule="evenodd"/><path fill="#000000" fill-opacity="0.0" d="m298.23883 207.16798l144.68793 0l0 -95.2441l24.130981 0" fill-rule="evenodd"/><path stroke="#000000" stroke-width="2.0" stroke-linejoin="round" stroke-linecap="butt" d="m305.81885 207.16798l137.10791 0l0 -95.2441l17.276825 0" fill-rule="evenodd"/><path fill="#000000" stroke="#000000" stroke-width="2.0" stroke-linecap="butt" d="m299.23883 207.16798c0 -1.8170166 1.472992 -3.2900085 3.2900085 -3.2900085c1.8170166 0 3.2900085 1.472992 3.2900085 3.2900085c0 1.8170166 -1.472992 3.2899933 -3.2900085 3.2899933c-1.8170166 0 -3.2900085 -1.4729767 -3.2900085 -3.2899933z" fill-rule="nonzero"/><path fill="#000000" stroke="#000000" stroke-width="2.0" stroke-linecap="butt" d="m460.20358 111.92388l-2.249176 2.2491684l6.179535 -2.2491684l-6.179535 -2.2491608z" fill-rule="evenodd"/><path fill="#000000" fill-opacity="0.0" d="m13.942257 111.53018l186.17322 0l0 96.031494l-186.17322 0z" fill-rule="evenodd"/><path fill="#000000" d="m25.286007 126.49593l6.015625 0l0 0.625q-3.984375 2.9687424 -3.984375 8.359367q0 5.46875 3.984375 8.515625l0 0.625l-6.015625 0l0 -18.124992zm10.703125 2.5781174l-1.5625 0l0 -1.4843674l10.078125 0l0 1.4843674l-2.34375 0l0 15.15625l-1.5625 0l0 -3.984375q-3.28125 1.171875 -5.546875 1.71875q-0.390625 0.546875 -0.46875 0.234375l-0.46875 -1.953125q0.9375 -0.15625 1.875 -0.3125l0 -10.859375zm6.71875 13.59375q2.421875 -1.640625 3.75 -3.4375q-1.953125 -2.890625 -2.5 -7.734375l-0.9375 0l0 -1.484375l6.71875 0l0.3125 -0.390625l1.328125 1.25l-0.390625 0.234375q-0.546875 4.765625 -2.5 8.203125q1.25 1.640625 3.28125 2.890625l-0.9375 1.640625q-2.03125 -1.5625 -3.359375 -3.203125q-1.5625 1.796875 -3.671875 3.515625l-1.09375 -1.484375zm4.6875 -4.765625q1.25 -1.875 1.875 -6.40625l-3.828125 0q0.390625 3.671875 1.953125 6.40625zm-9.84375 -8.828125l0 2.65625l3.046875 0l0 -2.65625l-3.046875 0zm0 3.90625l0 2.578125l3.046875 0l0 -2.578125l-3.046875 0zm0 3.828125l0 2.8125q1.484375 -0.3125 3.046875 -0.859375l0 -1.953125l-3.046875 0zm16.40625 -0.625q2.96875 -1.953125 5.0 -5.546875l1.171875 0.9375q0.3125 0.234375 -0.234375 0.390625q-1.015625 1.640625 -1.484375 2.265625l0 10.3125l-1.5625 0l0 -8.671875q-0.859375 0.859375 -2.03125 1.796875l-0.859375 -1.484375zm0.46875 -5.46875q2.421875 -1.5625 3.90625 -4.0624924l1.25 0.9375q0.3125 0.3125 -0.234375 0.390625q-1.796875 2.8124924 -4.0625 4.2187424l-0.859375 -1.484375zm8.28125 8.4375q1.015625 0.703125 2.4218788 2.5l-1.3281288 1.09375q-1.171875 -1.640625 -2.34375 -2.65625l1.25 -0.9375zm-3.28125 -0.390625l0 -1.484375l7.968754 0l0 -1.328125l-7.890629 0l0 -1.484375l12.343754 0l0 1.484375l-2.890625 0l0 1.328125l2.8125 0l0 1.484375l-2.8125 0l0 4.453125q0 1.171875 -1.09375 1.171875l-1.796875 0l-0.3125 -1.484375l1.328125 0q0.3125 0 0.3125 -0.3125l0 -3.828125l-7.968754 0zm8.984379 -7.96875l-5.625004 0l0 1.40625l5.625004 0l0 -1.40625zm0 -2.5l-5.625004 0l0 1.25l5.625004 0l0 -1.25zm1.328125 -1.2499924l0 6.4062424l-8.281254 0l0 -6.4062424l8.281254 0zm12.8125 11.640617q-0.9375 0.546875 -1.953125 0.546875q-1.328125 0 -2.03125 -0.703125q-0.9375 -0.9375 -0.9375 -2.109375q0 -1.25 0.9375 -2.1875q0.9375 -0.9375 2.34375 -0.9375q0.9375 0 1.796875 0.234375l0 -1.71875l-8.59375 0.546875l-0.3125 -1.640625l8.90625 -0.390625l0 -3.6718674l1.40625 0q0.859375 0.15625 0.15625 0.625l0 2.9687424l6.640625 -0.46875l0 1.640625l-6.640625 0.3125l0 2.96875q0.3125 1.40625 0.3125 3.125q-0.078125 3.984375 -4.453125 6.71875l-1.484375 -1.09375q3.90625 -2.265625 3.90625 -4.765625zm-1.484375 -4.0625q-0.859375 0 -1.40625 0.546875q-0.46875 0.46875 -0.46875 1.25q0 0.703125 0.390625 1.09375q0.390625 0.390625 1.25 0.390625q0.859375 0 1.40625 -0.546875q0.46875 -0.46875 0.46875 -1.171875q0 -0.703125 -0.46875 -1.171875q-0.390625 -0.390625 -1.171875 -0.390625zm22.109375 7.734375q1.25 -0.15625 2.109375 -1.015625q0.9375 -0.9375 0.9375 -2.5q0 -1.71875 -1.015625 -2.734375q-1.015625 -1.015625 -3.203125 -1.015625q-2.578125 0 -3.984375 1.015625q-1.328125 0.9375 -3.4375 3.359375l-1.328125 -1.171875q5.625 -5.625 8.515625 -9.375q-2.578125 0.3125 -5.15625 0.546875l-0.546875 -1.7968674q3.828125 0 6.796875 -0.390625l0.703125 -0.3125l0.859375 0.859375q0.859375 0.7812424 -0.390625 1.0156174q-2.34375 2.65625 -4.6875 5.234375q1.640625 -0.390625 2.734375 -0.390625q2.96875 0 4.375 1.40625q1.40625 1.40625 1.40625 3.59375q0 2.265625 -1.25 3.515625q-1.875 1.875 -4.765625 1.875q-2.734375 0 -3.984375 -1.25q-1.015625 -1.015625 -1.015625 -2.421875q0 -0.9375 0.703125 -1.640625q0.78125 -0.78125 1.796875 -0.78125q1.40625 0 2.34375 0.9375q1.09375 1.09375 1.484375 3.4375zm-1.5625 0.234375q-0.234375 -2.03125 -0.9375 -2.734375q-0.546875 -0.546875 -1.09375 -0.546875q-0.625 0 -0.9375 0.3125q-0.390625 0.390625 -0.390625 0.859375q0 0.703125 0.625 1.328125q0.78125 0.78125 2.03125 0.78125q0.3125 0 0.703125 0zm26.015625 -5.9375l-7.265625 0.78125l1.484375 6.328125l-1.71875 0.390625l-1.484375 -6.484375l-7.96875 0.9375l-0.234375 -1.640625l7.8125 -0.859375l-0.78125 -3.671875l-5.3125 0.625l-0.3125 -1.640625l5.15625 -0.546875l-0.78125 -3.5937424l1.640625 -0.3125q0.703125 -0.078125 0.234375 0.546875l0.625 3.1249924l5.703125 -0.78125l0.3125 1.640625l-5.546875 0.703125l0.78125 3.671875l7.34375 -0.859375l0.3125 1.640625zm1.953125 -0.3125l0 -1.71875l17.421875 0l0 1.71875l-17.421875 0zm19.84375 -9.843742l6.015625 0l0 18.124992l-6.015625 0l0 -0.625q3.984375 -3.046875 3.984375 -8.4375q0 -5.46875 -3.984375 -8.437492l0 -0.625z" fill-rule="nonzero"/><path fill="#000000" d="m24.270382 166.74593l0 -14.3125l1.765625 0l0 8.15625l4.15625 -4.21875l2.265625 0l-3.953125 3.84375l4.359375 6.53125l-2.171875 0l-3.421875 -5.296875l-1.234375 1.1875l0 4.109375l-1.765625 0zm17.09375 -3.34375l1.8125 0.234375q-0.421875 1.578125 -1.59375 2.46875q-1.15625 0.875 -2.96875 0.875q-2.265625 0 -3.609375 -1.390625q-1.328125 -1.40625 -1.328125 -3.9375q0 -2.625 1.34375 -4.0625q1.34375 -1.453125 3.5 -1.453125q2.078125 0 3.390625 1.421875q1.328125 1.40625 1.328125 3.984375q0 0.15625 -0.015625 0.46875l-7.734375 0q0.09375 1.703125 0.96875 2.609375q0.875 0.90625 2.171875 0.90625q0.96875 0 1.640625 -0.5q0.6875 -0.515625 1.09375 -1.625zm-5.78125 -2.84375l5.796875 0q-0.109375 -1.296875 -0.65625 -1.953125q-0.84375 -1.015625 -2.1875 -1.015625q-1.203125 0 -2.03125 0.8125q-0.828125 0.796875 -0.921875 2.15625zm9.716797 10.1875l-0.1875 -1.65625q0.578125 0.15625 1.0 0.15625q0.59375 0 0.9375 -0.203125q0.359375 -0.1875 0.578125 -0.53125q0.171875 -0.265625 0.546875 -1.3125q0.046875 -0.15625 0.15625 -0.4375l-3.9375 -10.390625l1.890625 0l2.15625 6.015625q0.421875 1.140625 0.75 2.390625q0.3125 -1.203125 0.71875 -2.359375l2.21875 -6.046875l1.765625 0l-3.953125 10.546875q-0.625 1.71875 -0.984375 2.359375q-0.46875 0.875 -1.078125 1.265625q-0.59375 0.40625 -1.4375 0.40625q-0.515625 0 -1.140625 -0.203125zm24.88477 -12.421875l-9.453129 0l0 -1.640625l9.453129 0l0 1.640625zm0 4.34375l-9.453129 0l0 -1.640625l9.453129 0l0 1.640625z" fill-rule="nonzero"/><path fill="#980000" d="m80.88953 158.2303l-2.734375 0l0 -1.96875q0 -1.1875 0.203125 -1.875q0.203125 -0.6875 0.765625 -1.234375q0.578125 -0.546875 1.453125 -0.859375l0.546875 1.125q-0.828125 0.28125 -1.1875 0.765625q-0.359375 0.484375 -0.375 1.296875l1.328125 0l0 2.75zm4.578125 0l-2.734375 0l0 -1.96875q0 -1.203125 0.203125 -1.875q0.21875 -0.6875 0.78125 -1.234375q0.578125 -0.546875 1.4375 -0.859375l0.546875 1.125q-0.828125 0.28125 -1.1875 0.765625q-0.34375 0.484375 -0.375 1.296875l1.328125 0l0 2.75zm8.015625 -5.796875l2.875 0l0 9.0625q0 1.765625 -0.3125 2.734375q-0.421875 1.25 -1.53125 2.015625q-1.09375 0.75 -2.90625 0.75q-2.109375 0 -3.25 -1.1875q-1.140625 -1.1875 -1.15625 -3.484375l2.71875 -0.3125q0.046875 1.234375 0.359375 1.734375q0.46875 0.765625 1.4375 0.765625q0.96875 0 1.359375 -0.546875q0.40625 -0.546875 0.40625 -2.28125l0 -9.25zm7.982422 7.109375l-2.484375 -0.453125q0.421875 -1.5 1.4375 -2.21875q1.03125 -0.734375 3.046875 -0.734375q1.84375 0 2.734375 0.4375q0.90625 0.4375 1.265625 1.109375q0.375 0.65625 0.375 2.453125l-0.03125 3.203125q0 1.359375 0.125 2.015625q0.140625 0.640625 0.5 1.390625l-2.71875 0q-0.109375 -0.28125 -0.265625 -0.8125q-0.0625 -0.25 -0.09375 -0.328125q-0.703125 0.6875 -1.515625 1.03125q-0.796875 0.34375 -1.703125 0.34375q-1.59375 0 -2.515625 -0.859375q-0.921875 -0.875 -0.921875 -2.203125q0 -0.890625 0.40625 -1.578125q0.421875 -0.6875 1.171875 -1.046875q0.765625 -0.375 2.203125 -0.640625q1.921875 -0.359375 2.65625 -0.671875l0 -0.28125q0 -0.78125 -0.390625 -1.109375q-0.390625 -0.34375 -1.46875 -0.34375q-0.734375 0 -1.15625 0.28125q-0.40625 0.28125 -0.65625 1.015625zm3.671875 2.21875q-0.53125 0.171875 -1.671875 0.421875q-1.140625 0.25 -1.484375 0.484375q-0.546875 0.375 -0.546875 0.96875q0 0.5625 0.421875 0.984375q0.4375 0.421875 1.109375 0.421875q0.734375 0 1.40625 -0.484375q0.5 -0.375 0.65625 -0.90625q0.109375 -0.359375 0.109375 -1.34375l0 -0.546875zm8.248047 4.984375l-4.171875 -10.375l2.875 0l1.953125 5.296875l0.578125 1.765625q0.21875 -0.671875 0.28125 -0.890625q0.125 -0.4375 0.28125 -0.875l1.984375 -5.296875l2.8125 0l-4.109375 10.375l-2.484375 0zm10.326172 -7.203125l-2.484375 -0.453125q0.421875 -1.5 1.4375 -2.21875q1.03125 -0.734375 3.046875 -0.734375q1.84375 0 2.734375 0.4375q0.90625 0.4375 1.265625 1.109375q0.375 0.65625 0.375 2.453125l-0.03125 3.203125q0 1.359375 0.125 2.015625q0.140625 0.640625 0.5 1.390625l-2.71875 0q-0.109375 -0.28125 -0.265625 -0.8125q-0.0625 -0.25 -0.09375 -0.328125q-0.703125 0.6875 -1.515625 1.03125q-0.796875 0.34375 -1.703125 0.34375q-1.59375 0 -2.515625 -0.859375q-0.921875 -0.875 -0.921875 -2.203125q0 -0.890625 0.40625 -1.578125q0.421875 -0.6875 1.171875 -1.046875q0.765625 -0.375 2.203125 -0.640625q1.921875 -0.359375 2.65625 -0.671875l0 -0.28125q0 -0.78125 -0.390625 -1.109375q-0.390625 -0.34375 -1.46875 -0.34375q-0.734375 0 -1.15625 0.28125q-0.40625 0.28125 -0.65625 1.015625zm3.671875 2.21875q-0.53125 0.171875 -1.671875 0.421875q-1.140625 0.25 -1.484375 0.484375q-0.546875 0.375 -0.546875 0.96875q0 0.5625 0.421875 0.984375q0.4375 0.421875 1.109375 0.421875q0.734375 0 1.40625 -0.484375q0.5 -0.375 0.65625 -0.90625q0.109375 -0.359375 0.109375 -1.34375l0 -0.546875zm9.826172 -9.328125l2.75 0l0 1.96875q0 1.1875 -0.21875 1.875q-0.203125 0.6875 -0.78125 1.234375q-0.5625 0.546875 -1.4375 0.859375l-0.53125 -1.140625q0.8125 -0.265625 1.171875 -0.75q0.359375 -0.5 0.359375 -1.3125l-1.3125 0l0 -2.734375zm-4.609375 0l2.75 0l0 1.96875q0 1.1875 -0.21875 1.875q-0.203125 0.6875 -0.78125 1.234375q-0.5625 0.546875 -1.4375 0.859375l-0.53125 -1.140625q0.828125 -0.265625 1.171875 -0.75q0.359375 -0.5 0.375 -1.3125l-1.328125 0l0 -2.734375z" fill-rule="nonzero"/><path fill="#000000" d="m24.254757 190.74593l0 -14.3125l1.765625 0l0 5.125q1.234375 -1.421875 3.109375 -1.421875q1.140625 0 1.984375 0.453125q0.859375 0.453125 1.21875 1.265625q0.375 0.796875 0.375 2.3125l0 6.578125l-1.75 0l0 -6.578125q0 -1.3125 -0.578125 -1.90625q-0.578125 -0.609375 -1.609375 -0.609375q-0.78125 0 -1.484375 0.40625q-0.6875 0.40625 -0.984375 1.109375q-0.28125 0.6875 -0.28125 1.90625l0 5.671875l-1.765625 0zm17.904297 -1.28125q-0.984375 0.828125 -1.890625 1.171875q-0.90625 0.34375 -1.9375 0.34375q-1.703125 0 -2.625 -0.828125q-0.921875 -0.84375 -0.921875 -2.140625q0 -0.765625 0.34375 -1.390625q0.359375 -0.625 0.921875 -1.0q0.5625 -0.390625 1.265625 -0.59375q0.515625 -0.125 1.5625 -0.265625q2.125 -0.25 3.125 -0.59375q0.015625 -0.359375 0.015625 -0.46875q0 -1.0625 -0.5 -1.515625q-0.671875 -0.59375 -2.0 -0.59375q-1.25 0 -1.84375 0.4375q-0.578125 0.4375 -0.859375 1.546875l-1.71875 -0.234375q0.234375 -1.109375 0.765625 -1.78125q0.53125 -0.6875 1.546875 -1.046875q1.015625 -0.375 2.359375 -0.375q1.328125 0 2.15625 0.3125q0.828125 0.3125 1.21875 0.796875q0.390625 0.46875 0.546875 1.1875q0.09375 0.453125 0.09375 1.625l0 2.34375q0 2.453125 0.109375 3.109375q0.109375 0.640625 0.453125 1.234375l-1.84375 0q-0.265625 -0.546875 -0.34375 -1.28125zm-0.15625 -3.921875q-0.953125 0.390625 -2.875 0.65625q-1.078125 0.15625 -1.53125 0.359375q-0.4375 0.1875 -0.6875 0.5625q-0.25 0.375 -0.25 0.84375q0 0.703125 0.53125 1.171875q0.53125 0.46875 1.5625 0.46875q1.015625 0 1.796875 -0.4375q0.796875 -0.453125 1.171875 -1.21875q0.28125 -0.609375 0.28125 -1.765625l0 -0.640625zm3.7949219 2.109375l1.75 -0.28125q0.140625 1.046875 0.8125 1.609375q0.671875 0.546875 1.875 0.546875q1.203125 0 1.78125 -0.484375q0.59375 -0.5 0.59375 -1.15625q0 -0.59375 -0.515625 -0.9375q-0.359375 -0.234375 -1.796875 -0.59375q-1.9375 -0.5 -2.6875 -0.84375q-0.734375 -0.359375 -1.125 -0.984375q-0.390625 -0.640625 -0.390625 -1.40625q0 -0.6875 0.3125 -1.28125q0.328125 -0.59375 0.875 -0.984375q0.40625 -0.296875 1.109375 -0.5q0.71875 -0.21875 1.53125 -0.21875q1.21875 0 2.140625 0.359375q0.921875 0.34375 1.359375 0.953125q0.4375 0.59375 0.609375 1.59375l-1.71875 0.234375q-0.125 -0.796875 -0.6875 -1.234375q-0.5625 -0.453125 -1.578125 -0.453125q-1.21875 0 -1.734375 0.40625q-0.515625 0.390625 -0.515625 0.921875q0 0.34375 0.21875 0.625q0.203125 0.28125 0.671875 0.46875q0.265625 0.09375 1.546875 0.4375q1.875 0.5 2.609375 0.828125q0.734375 0.3125 1.15625 0.921875q0.421875 0.59375 0.421875 1.5q0 0.875 -0.515625 1.65625q-0.515625 0.78125 -1.484375 1.203125q-0.96875 0.421875 -2.1875 0.421875q-2.015625 0 -3.078125 -0.84375q-1.0625 -0.84375 -1.359375 -2.484375zm10.703125 3.09375l0 -14.3125l1.765625 0l0 5.125q1.234375 -1.421875 3.109375 -1.421875q1.140625 0 1.984375 0.453125q0.8593788 0.453125 1.2187538 1.265625q0.375 0.796875 0.375 2.3125l0 6.578125l-1.7500038 0l0 -6.578125q0 -1.3125 -0.578125 -1.90625q-0.578125 -0.609375 -1.609375 -0.609375q-0.78125 0 -1.484375 0.40625q-0.6875 0.40625 -0.984375 1.109375q-0.28125 0.6875 -0.28125 1.90625l0 5.671875l-1.765625 0zm25.929691 -8.421875l-9.453125 0l0 -1.640625l9.453125 0l0 1.640625zm0 4.34375l-9.453125 0l0 -1.640625l9.453125 0l0 1.640625z" fill-rule="nonzero"/><path fill="#980000" d="m99.22937 188.19905l0 2.546875l-9.625 0q0.15625 -1.453125 0.9375 -2.734375q0.78125 -1.296875 3.078125 -3.4375q1.859375 -1.734375 2.28125 -2.34375q0.5625 -0.84375 0.5625 -1.6875q0 -0.90625 -0.5 -1.390625q-0.484375 -0.5 -1.34375 -0.5q-0.859375 0 -1.375 0.515625q-0.5 0.515625 -0.578125 1.71875l-2.734375 -0.28125q0.234375 -2.265625 1.515625 -3.25q1.296875 -0.984375 3.234375 -0.984375q2.125 0 3.328125 1.140625q1.21875 1.140625 1.21875 2.84375q0 0.96875 -0.359375 1.84375q-0.34375 0.875 -1.09375 1.828125q-0.5 0.640625 -1.796875 1.828125q-1.296875 1.1875 -1.640625 1.578125q-0.34375 0.390625 -0.5625 0.765625l5.453125 0zm8.873047 2.546875l-2.75 0l0 -10.34375q-1.5 1.40625 -3.546875 2.078125l0 -2.484375q1.078125 -0.359375 2.328125 -1.328125q1.265625 -0.984375 1.734375 -2.296875l2.234375 0l0 14.375zm4.154297 -3.3125l2.65625 -0.296875q0.09375 0.8125 0.5 1.203125q0.421875 0.390625 1.09375 0.390625q0.84375 0 1.4375 -0.78125q0.609375 -0.78125 0.765625 -3.234375q-1.03125 1.203125 -2.578125 1.203125q-1.6875 0 -2.921875 -1.296875q-1.21875 -1.3125 -1.21875 -3.40625q0 -2.171875 1.28125 -3.5q1.296875 -1.34375 3.296875 -1.34375q2.1875 0 3.578125 1.6875q1.40625 1.6875 1.40625 5.53125q0 3.9375 -1.46875 5.671875q-1.453125 1.734375 -3.78125 1.734375q-1.6875 0 -2.71875 -0.890625q-1.03125 -0.890625 -1.328125 -2.671875zm6.21875 -6.0q0 -1.328125 -0.609375 -2.046875q-0.609375 -0.734375 -1.421875 -0.734375q-0.75 0 -1.265625 0.59375q-0.5 0.59375 -0.5 1.96875q0 1.390625 0.546875 2.046875q0.546875 0.640625 1.375 0.640625q0.78125 0 1.328125 -0.625q0.546875 -0.625 0.546875 -1.84375zm9.482422 -5.0625q2.078125 0 3.25 1.484375q1.40625 1.75 1.40625 5.828125q0 4.0625 -1.40625 5.84375q-1.171875 1.46875 -3.25 1.46875q-2.078125 0 -3.359375 -1.609375q-1.28125 -1.609375 -1.28125 -5.734375q0 -4.046875 1.40625 -5.8125q1.15625 -1.46875 3.234375 -1.46875zm0 2.28125q-0.5 0 -0.890625 0.3125q-0.390625 0.3125 -0.59375 1.140625q-0.28125 1.0625 -0.28125 3.578125q0 2.515625 0.25 3.46875q0.25 0.9375 0.625 1.25q0.390625 0.3125 0.890625 0.3125q0.5 0 0.890625 -0.3125q0.390625 -0.328125 0.609375 -1.140625q0.28125 -1.0625 0.28125 -3.578125q0 -2.515625 -0.25 -3.453125q-0.25 -0.953125 -0.640625 -1.265625q-0.390625 -0.3125 -0.890625 -0.3125zm15.763672 9.546875l0 2.546875l-9.625 0q0.15625 -1.453125 0.9375 -2.734375q0.78125 -1.296875 3.078125 -3.4375q1.859375 -1.734375 2.28125 -2.34375q0.5625 -0.84375 0.5625 -1.6875q0 -0.90625 -0.5 -1.390625q-0.484375 -0.5 -1.34375 -0.5q-0.859375 0 -1.375 0.515625q-0.5 0.515625 -0.578125 1.71875l-2.734375 -0.28125q0.234375 -2.265625 1.515625 -3.25q1.296875 -0.984375 3.234375 -0.984375q2.125 0 3.328125 1.140625q1.21875 1.140625 1.21875 2.84375q0 0.96875 -0.359375 1.84375q-0.34375 0.875 -1.09375 1.828125q-0.5 0.640625 -1.796875 1.828125q-1.296875 1.1875 -1.640625 1.578125q-0.34375 0.390625 -0.5625 0.765625l5.453125 0zm11.123047 0l0 2.546875l-9.625 0q0.15625 -1.453125 0.9375 -2.734375q0.78125 -1.296875 3.078125 -3.4375q1.859375 -1.734375 2.28125 -2.34375q0.5625 -0.84375 0.5625 -1.6875q0 -0.90625 -0.5 -1.390625q-0.484375 -0.5 -1.34375 -0.5q-0.859375 0 -1.375 0.515625q-0.5 0.515625 -0.578125 1.71875l-2.734375 -0.28125q0.234375 -2.265625 1.515625 -3.25q1.296875 -0.984375 3.234375 -0.984375q2.125 0 3.328125 1.140625q1.21875 1.140625 1.21875 2.84375q0 0.96875 -0.359375 1.84375q-0.34375 0.875 -1.09375 1.828125q-0.5 0.640625 -1.796875 1.828125q-1.296875 1.1875 -1.640625 1.578125q-0.34375 0.390625 -0.5625 0.765625l5.453125 0zm11.123047 0l0 2.546875l-9.625 0q0.15625 -1.453125 0.9375 -2.734375q0.78125 -1.296875 3.078125 -3.4375q1.859375 -1.734375 2.28125 -2.34375q0.5625 -0.84375 0.5625 -1.6875q0 -0.90625 -0.5 -1.390625q-0.484375 -0.5 -1.34375 -0.5q-0.859375 0 -1.375 0.515625q-0.5 0.515625 -0.578125 1.71875l-2.734375 -0.28125q0.234375 -2.265625 1.515625 -3.25q1.296875 -0.984375 3.234375 -0.984375q2.125 0 3.328125 1.140625q1.21875 1.140625 1.21875 2.84375q0 0.96875 -0.359375 1.84375q-0.34375 0.875 -1.09375 1.828125q-0.5 0.640625 -1.796875 1.828125q-1.296875 1.1875 -1.640625 1.578125q-0.34375 0.390625 -0.5625 0.765625l5.453125 0z" fill-rule="nonzero"/><path fill="#000000" fill-opacity="0.0" d="m380.4567 70.92913l39.811035 0l0 33.637802l-39.811035 0z" fill-rule="evenodd"/><path fill="#000000" d="m405.98795 84.06788q2.765625 2.75 2.765625 6.65625q0 3.90625 -2.765625 6.65625q-2.75 2.765625 -6.65625 2.765625q-3.90625 0 -6.65625 -2.765625q-2.765625 -2.75 -2.765625 -6.65625q0 -3.90625 2.765625 -6.65625q2.75 -2.765625 6.65625 -2.765625q3.90625 0 6.65625 2.765625zm-0.921875 12.390625q2.359375 -2.375 2.359375 -5.734375q0 -3.359375 -2.359375 -5.734375q-2.375 -2.359375 -5.734375 -2.359375q-3.359375 0 -5.734375 2.359375q-2.359375 2.375 -2.359375 5.734375q0 3.359375 2.359375 5.734375q2.375 2.359375 5.734375 2.359375q3.359375 0 5.734375 -2.359375zm-4.328125 -12.484375l0 13.28125l-2.296875 0l0 -9.953125l-2.890625 0l0 -1.796875q2.84375 0.15625 3.59375 -1.53125l1.59375 0z" fill-rule="nonzero"/><path fill="#000000" fill-opacity="0.0" d="m433.86877 142.72704l39.811005 0l0 33.637787l-39.811005 0z" fill-rule="evenodd"/><path fill="#000000" d="m456.90002 159.63141q0 1.59375 -1.125 2.875q-0.921875 0.84375 -2.34375 1.875q-2.4375 1.8125 -2.65625 2.4375l6.5 0l0 2.234375l-9.140625 0l0 -1.84375q0.796875 -1.90625 2.78125 -3.515625q2.0625 -1.609375 2.890625 -2.4375q0.71875 -0.640625 0.71875 -1.625q0 -0.84375 -0.578125 -1.4375q-0.359375 -0.34375 -1.28125 -0.34375q-0.90625 0 -1.28125 0.359375q-0.5625 0.5625 -0.375 1.9375l-2.484375 0q-0.09375 -2.203125 1.046875 -3.328125q1.1875 -1.203125 3.09375 -1.203125q1.90625 0 3.03125 1.140625q1.203125 1.1875 1.203125 2.875zm2.5 -3.765625q2.765625 2.75 2.765625 6.65625q0 3.90625 -2.765625 6.65625q-2.75 2.765625 -6.65625 2.765625q-3.90625 0 -6.65625 -2.765625q-2.765625 -2.75 -2.765625 -6.65625q0 -3.90625 2.765625 -6.65625q2.75 -2.765625 6.65625 -2.765625q3.90625 0 6.65625 2.765625zm-0.921875 12.390625q2.359375 -2.375 2.359375 -5.734375q0 -3.359375 -2.359375 -5.734375q-2.375 -2.359375 -5.734375 -2.359375q-3.359375 0 -5.734375 2.359375q-2.359375 2.375 -2.359375 5.734375q0 3.359375 2.359375 5.734375q2.375 2.359375 5.734375 2.359375q3.359375 0 5.734375 -2.359375z" fill-rule="nonzero"/></g></svg>