<svg version="1.1" viewBox="0.0 0.0 644.8897637795276 100.0" fill="none" stroke="none" stroke-linecap="square" stroke-miterlimit="10" xmlns:xlink="http://www.w3.org/1999/xlink" xmlns="http://www.w3.org/2000/svg"><clipPath id="p.0"><path d="m0 0l644.8898 0l0 100.0l-644.8898 0l0 -100.0z" clip-rule="nonzero"/></clipPath><g clip-path="url(#p.0)"><path fill="#000000" fill-opacity="0.0" d="m0 0l644.8898 0l0 100.0l-644.8898 0z" fill-rule="evenodd"/><path fill="#cccccc" d="m2.1889763 27.430447l39.811024 0l0 36.0l-39.811024 0z" fill-rule="evenodd"/><path stroke="#000000" stroke-width="3.0" stroke-linejoin="round" stroke-linecap="butt" d="m2.1889763 27.430447l39.811024 0l0 36.0l-39.811024 0z" fill-rule="evenodd"/><path fill="#000000" fill-opacity="0.0" d="m2.0 -8.913385l40.0 0l0 40.0l-40.0 0z" fill-rule="evenodd"/><path fill="#000000" d="m21.937141 4.6003623q1.9375 0 3.03125 1.375q1.296875 1.640625 1.296875 5.4375005q0 3.796875 -1.3125 5.453125q-1.078125 1.375 -3.015625 1.375q-1.953125 0 -3.15625 -1.5q-1.1875 -1.5 -1.1875 -5.34375q0 -3.7812505 1.3125 -5.4375005q1.078125 -1.359375 3.03125 -1.359375zm0 2.125q-0.46875 0 -0.84375 0.296875q-0.359375 0.296875 -0.5625 1.0625005q-0.25 0.984375 -0.25 3.328125q0 2.359375 0.234375 3.234375q0.234375 0.875 0.59375 1.171875q0.359375 0.296875 0.828125 0.296875q0.453125 0 0.8125 -0.296875q0.375 -0.296875 0.578125 -1.0625q0.265625 -0.984375 0.265625 -3.34375q0 -2.34375 -0.25 -3.21875q-0.234375 -0.8750005 -0.59375 -1.1718755q-0.359375 -0.296875 -0.8125 -0.296875z" fill-rule="nonzero"/><path fill="#cccccc" d="m42.188976 27.430447l39.811024 0l0 36.0l-39.811024 0z" fill-rule="evenodd"/><path stroke="#000000" stroke-width="3.0" stroke-linejoin="round" stroke-linecap="butt" d="m42.188976 27.430447l39.811024 0l0 36.0l-39.811024 0z" fill-rule="evenodd"/><path fill="#000000" fill-opacity="0.0" d="m42.0 -8.913385l40.0 0l0 40.0l-40.0 0z" fill-rule="evenodd"/><path fill="#000000" d="m64.15589 18.006613l-2.5625 0l0 -9.640625q-1.40625 1.3125 -3.3125 1.9375l0 -2.3281255q1.015625 -0.328125 2.1875 -1.234375q1.171875 -0.921875 1.609375 -2.140625l2.078125 0l0 13.40625z" fill-rule="nonzero"/><path fill="#cccccc" d="m82.18898 27.430447l39.81102 0l0 36.0l-39.81102 0z" fill-rule="evenodd"/><path stroke="#000000" stroke-width="3.0" stroke-linejoin="round" stroke-linecap="butt" d="m82.18898 27.430447l39.81102 0l0 36.0l-39.81102 0z" fill-rule="evenodd"/><path fill="#000000" fill-opacity="0.0" d="m82.0 -8.913385l40.0 0l0 40.0l-40.0 0z" fill-rule="evenodd"/><path fill="#000000" d="m106.24964 15.631613l0 2.375l-8.96875 0q0.140625 -1.34375 0.859375 -2.546875q0.734375 -1.21875 2.890625 -3.203125q1.734375 -1.625 2.125 -2.1875q0.53125 -0.796875 0.53125 -1.578125q0 -0.8437505 -0.46875 -1.2968755q-0.453125 -0.46875 -1.265625 -0.46875q-0.796875 0 -1.28125 0.484375q-0.46875 0.46875 -0.546875 1.5937505l-2.546875 -0.25q0.234375 -2.1093755 1.421875 -3.0312505q1.203125 -0.921875 3.015625 -0.921875q1.96875 0 3.09375 1.0625q1.140625 1.0625 1.140625 2.6562505q0 0.890625 -0.328125 1.71875q-0.3125 0.8125 -1.015625 1.703125q-0.46875 0.59375 -1.6875 1.703125q-1.203125 1.109375 -1.53125 1.484375q-0.3125 0.359375 -0.515625 0.703125l5.078125 0z" fill-rule="nonzero"/><path fill="#cccccc" d="m122.18898 27.430447l39.81102 0l0 36.0l-39.81102 0z" fill-rule="evenodd"/><path stroke="#000000" stroke-width="3.0" stroke-linejoin="round" stroke-linecap="butt" d="m122.18898 27.430447l39.81102 0l0 36.0l-39.81102 0z" fill-rule="evenodd"/><path fill="#000000" fill-opacity="0.0" d="m122.0 -8.913385l40.0 0l0 40.0l-40.0 0z" fill-rule="evenodd"/><path fill="#000000" d="m137.51526 14.459738l2.46875 -0.296875q0.125 0.953125 0.640625 1.453125q0.53125 0.5 1.265625 0.5q0.78125 0 1.328125 -0.59375q0.546875 -0.609375 0.546875 -1.640625q0 -0.953125 -0.53125 -1.515625q-0.515625 -0.578125 -1.25 -0.578125q-0.5 0 -1.1875 0.203125l0.28125 -2.09375q1.046875 0.03125 1.59375 -0.4375q0.546875 -0.484375 0.546875 -1.28125q0 -0.6718755 -0.40625 -1.0781255q-0.390625 -0.40625 -1.0625 -0.40625q-0.65625 0 -1.125 0.46875q-0.453125 0.453125 -0.5625 1.3281255l-2.359375 -0.40625q0.25 -1.2031255 0.734375 -1.9218755q0.5 -0.734375 1.390625 -1.140625q0.890625 -0.421875 2.0 -0.421875q1.875 0 3.015625 1.203125q0.9375 0.984375 0.9375 2.2187505q0 1.765625 -1.921875 2.8125q1.15625 0.234375 1.84375 1.09375q0.6875 0.859375 0.6875 2.0625q0 1.765625 -1.296875 3.015625q-1.28125 1.234375 -3.1875 1.234375q-1.8125 0 -3.015625 -1.046875q-1.1875 -1.046875 -1.375 -2.734375z" fill-rule="nonzero"/><path fill="#cccccc" d="m162.18898 27.430447l39.81102 0l0 36.0l-39.81102 0z" fill-rule="evenodd"/><path stroke="#000000" stroke-width="3.0" stroke-linejoin="round" stroke-linecap="butt" d="m162.18898 27.430447l39.81102 0l0 36.0l-39.81102 0z" fill-rule="evenodd"/><path fill="#000000" fill-opacity="0.0" d="m162.0 -8.913385l40.0 0l0 40.0l-40.0 0z" fill-rule="evenodd"/><path fill="#000000" d="m182.62463 18.006613l0 -2.6875l-5.46875 0l0 -2.234375l5.796875 -8.484375l2.15625 0l0 8.46875l1.65625 0l0 2.25l-1.65625 0l0 2.6875l-2.484375 0zm0 -4.9375l0 -4.5625l-3.078125 4.5625l3.078125 0z" fill-rule="nonzero"/><path fill="#cccccc" d="m202.18898 27.430447l39.81102 0l0 36.0l-39.81102 0z" fill-rule="evenodd"/><path stroke="#000000" stroke-width="3.0" stroke-linejoin="round" stroke-linecap="butt" d="m202.18898 27.430447l39.81102 0l0 36.0l-39.81102 0z" fill-rule="evenodd"/><path fill="#000000" fill-opacity="0.0" d="m202.0 -8.913385l40.0 0l0 40.0l-40.0 0z" fill-rule="evenodd"/><path fill="#000000" d="m217.64026 14.569113l2.546875 -0.265625q0.109375 0.875 0.640625 1.375q0.546875 0.5 1.25 0.5q0.796875 0 1.34375 -0.640625q0.5625 -0.65625 0.5625 -1.96875q0 -1.234375 -0.546875 -1.84375q-0.546875 -0.609375 -1.4375 -0.609375q-1.09375 0 -1.96875 0.96875l-2.078125 -0.296875l1.3125 -6.9531255l6.765625 0l0 2.390625l-4.828125 0l-0.40625 2.2656255q0.859375 -0.421875 1.75 -0.421875q1.703125 0 2.890625 1.25q1.1875 1.234375 1.1875 3.203125q0 1.65625 -0.953125 2.9375q-1.3125 1.78125 -3.625 1.78125q-1.84375 0 -3.015625 -1.0q-1.15625 -1.0 -1.390625 -2.671875z" fill-rule="nonzero"/><path fill="#cccccc" d="m242.18898 27.430447l39.81102 0l0 36.0l-39.81102 0z" fill-rule="evenodd"/><path stroke="#000000" stroke-width="3.0" stroke-linejoin="round" stroke-linecap="butt" d="m242.18898 27.430447l39.81102 0l0 36.0l-39.81102 0z" fill-rule="evenodd"/><path fill="#000000" fill-opacity="0.0" d="m242.0 -8.913385l40.0 0l0 40.0l-40.0 0z" fill-rule="evenodd"/><path fill="#000000" d="m266.28088 7.9284873l-2.484375 0.26562548q-0.09375 -0.7656255 -0.484375 -1.1250005q-0.375 -0.375 -0.984375 -0.375q-0.8125 0 -1.375 0.734375q-0.546875 0.7343755 -0.703125 3.0312505q0.96875 -1.125 2.390625 -1.125q1.59375 0 2.734375 1.21875q1.140625 1.21875 1.140625 3.15625q0 2.046875 -1.203125 3.296875q-1.1875 1.234375 -3.078125 1.234375q-2.03125 0 -3.328125 -1.578125q-1.296875 -1.578125 -1.296875 -5.15625q0 -3.6718755 1.34375 -5.2812505q1.359375 -1.625 3.53125 -1.625q1.53125 0 2.515625 0.859375q1.0 0.84375 1.28125 2.46875zm-5.8125 5.5781255q0 1.25 0.578125 1.9375q0.578125 0.671875 1.3125 0.671875q0.71875 0 1.1875 -0.546875q0.46875 -0.5625 0.46875 -1.828125q0 -1.3125 -0.515625 -1.90625q-0.5 -0.609375 -1.265625 -0.609375q-0.734375 0 -1.25 0.578125q-0.515625 0.578125 -0.515625 1.703125z" fill-rule="nonzero"/><path fill="#cccccc" d="m282.18896 27.430447l39.811035 0l0 36.0l-39.811035 0z" fill-rule="evenodd"/><path stroke="#000000" stroke-width="3.0" stroke-linejoin="round" stroke-linecap="butt" d="m282.18896 27.430447l39.811035 0l0 36.0l-39.811035 0z" fill-rule="evenodd"/><path fill="#000000" fill-opacity="0.0" d="m282.0 -8.913385l40.0 0l0 40.0l-40.0 0z" fill-rule="evenodd"/><path fill="#000000" d="m297.609 7.2097373l0 -2.375l8.75 0l0 1.859375q-1.078125 1.0625 -2.203125 3.0625005q-1.125 1.984375 -1.71875 4.234375q-0.578125 2.25 -0.5625 4.015625l-2.46875 0q0.0625 -2.765625 1.140625 -5.640625q1.078125 -2.890625 2.875 -5.1562505l-5.8125 0z" fill-rule="nonzero"/><path fill="#cccccc" d="m322.18896 27.430447l39.811035 0l0 36.0l-39.811035 0z" fill-rule="evenodd"/><path stroke="#000000" stroke-width="3.0" stroke-linejoin="round" stroke-linecap="butt" d="m322.18896 27.430447l39.811035 0l0 36.0l-39.811035 0z" fill-rule="evenodd"/><path fill="#000000" fill-opacity="0.0" d="m322.0 -8.913385l40.0 0l0 40.0l-40.0 0z" fill-rule="evenodd"/><path fill="#000000" d="m339.7965 10.803488q-0.984375 -0.421875 -1.4375 -1.15625q-0.453125 -0.734375 -0.453125 -1.609375q0 -1.4843755 1.03125 -2.4531255q1.046875 -0.984375 2.96875 -0.984375q1.90625 0 2.953125 0.984375q1.0625 0.96875 1.0625 2.4531255q0 0.9375 -0.484375 1.65625q-0.484375 0.71875 -1.359375 1.109375q1.109375 0.4375 1.6875 1.296875q0.578125 0.859375 0.578125 1.984375q0 1.84375 -1.1875 3.0q-1.171875 1.15625 -3.125 1.15625q-1.828125 0 -3.03125 -0.953125q-1.4375 -1.125 -1.4375 -3.09375q0 -1.09375 0.53125 -2.0q0.546875 -0.90625 1.703125 -1.390625zm0.53125 -2.578125q0 0.765625 0.421875 1.203125q0.4375 0.421875 1.15625 0.421875q0.734375 0 1.171875 -0.4375q0.4375 -0.4375 0.4375 -1.203125q0 -0.7187505 -0.4375 -1.1406255q-0.421875 -0.4375 -1.140625 -0.4375q-0.734375 0 -1.171875 0.4375q-0.4375 0.4375 -0.4375 1.1562505zm-0.234375 5.71875q0 1.0625 0.53125 1.65625q0.546875 0.578125 1.359375 0.578125q0.796875 0 1.3125 -0.5625q0.515625 -0.5625 0.515625 -1.640625q0 -0.9375 -0.53125 -1.5q-0.515625 -0.578125 -1.328125 -0.578125q-0.9375 0 -1.40625 0.65625q-0.453125 0.640625 -0.453125 1.390625z" fill-rule="nonzero"/><path fill="#cccccc" d="m362.18896 27.430447l39.811035 0l0 36.0l-39.811035 0z" fill-rule="evenodd"/><path stroke="#000000" stroke-width="3.0" stroke-linejoin="round" stroke-linecap="butt" d="m362.18896 27.430447l39.811035 0l0 36.0l-39.811035 0z" fill-rule="evenodd"/><path fill="#000000" fill-opacity="0.0" d="m362.0 -8.913385l40.0 0l0 40.0l-40.0 0z" fill-rule="evenodd"/><path fill="#000000" d="m377.65588 14.912863l2.484375 -0.265625q0.09375 0.75 0.46875 1.125q0.390625 0.359375 1.015625 0.359375q0.796875 0 1.34375 -0.71875q0.5625 -0.734375 0.71875 -3.03125q-0.96875 1.109375 -2.421875 1.109375q-1.578125 0 -2.71875 -1.203125q-1.140625 -1.21875 -1.140625 -3.171875q0 -2.0312505 1.203125 -3.2656255q1.203125 -1.25 3.078125 -1.25q2.03125 0 3.328125 1.578125q1.3125 1.5625 1.3125 5.1562505q0 3.671875 -1.359375 5.296875q-1.359375 1.609375 -3.53125 1.609375q-1.578125 0 -2.546875 -0.828125q-0.953125 -0.84375 -1.234375 -2.5zm5.796875 -5.59375q0 -1.234375 -0.578125 -1.9062505q-0.5625 -0.6875 -1.3125 -0.6875q-0.703125 0 -1.171875 0.5625q-0.46875 0.546875 -0.46875 1.8281255q0 1.296875 0.5 1.90625q0.515625 0.59375 1.28125 0.59375q0.734375 0 1.234375 -0.578125q0.515625 -0.578125 0.515625 -1.71875z" fill-rule="nonzero"/><path fill="#cccccc" d="m402.18896 27.430447l39.811035 0l0 36.0l-39.811035 0z" fill-rule="evenodd"/><path stroke="#000000" stroke-width="3.0" stroke-linejoin="round" stroke-linecap="butt" d="m402.18896 27.430447l39.811035 0l0 36.0l-39.811035 0z" fill-rule="evenodd"/><path fill="#000000" fill-opacity="0.0" d="m402.0 -8.913385l40.0 0l0 40.0l-40.0 0z" fill-rule="evenodd"/><path fill="#000000" d="m418.96802 18.006613l-2.5625 0l0 -9.640625q-1.40625 1.3125 -3.3125 1.9375l0 -2.3281255q1.015625 -0.328125 2.1875 -1.234375q1.171875 -0.921875 1.609375 -2.140625l2.078125 0l0 13.40625zm8.156982 -13.40625q1.9375 0 3.03125 1.375q1.296875 1.640625 1.296875 5.4375005q0 3.796875 -1.3125 5.453125q-1.078125 1.375 -3.015625 1.375q-1.953125 0 -3.15625 -1.5q-1.1875 -1.5 -1.1875 -5.34375q0 -3.7812505 1.3125 -5.4375005q1.078125 -1.359375 3.03125 -1.359375zm0 2.125q-0.46875 0 -0.84375 0.296875q-0.359375 0.296875 -0.5625 1.0625005q-0.25 0.984375 -0.25 3.328125q0 2.359375 0.234375 3.234375q0.234375 0.875 0.59375 1.171875q0.359375 0.296875 0.828125 0.296875q0.453125 0 0.8125 -0.296875q0.375 -0.296875 0.578125 -1.0625q0.265625 -0.984375 0.265625 -3.34375q0 -2.34375 -0.25 -3.21875q-0.234375 -0.8750005 -0.59375 -1.1718755q-0.359375 -0.296875 -0.8125 -0.296875z" fill-rule="nonzero"/><path fill="#cccccc" d="m442.18896 27.430447l39.811035 0l0 36.0l-39.811035 0z" fill-rule="evenodd"/><path stroke="#000000" stroke-width="3.0" stroke-linejoin="round" stroke-linecap="butt" d="m442.18896 27.430447l39.811035 0l0 36.0l-39.811035 0z" fill-rule="evenodd"/><path fill="#000000" fill-opacity="0.0" d="m442.0 -8.913385l40.0 0l0 40.0l-40.0 0z" fill-rule="evenodd"/><path fill="#000000" d="m459.483 18.006613l-2.5625 0l0 -9.640625q-1.40625 1.3125 -3.3125 1.9375l0 -2.3281255q1.015625 -0.328125 2.1875 -1.234375q1.171875 -0.921875 1.609375 -2.140625l2.078125 0l0 13.40625zm9.345764 0l-2.5625 0l0 -9.640625q-1.40625 1.3125 -3.3125 1.9375l0 -2.3281255q1.015625 -0.328125 2.1875 -1.234375q1.171875 -0.921875 1.609375 -2.140625l2.078125 0l0 13.40625z" fill-rule="nonzero"/><path fill="#cccccc" d="m482.18896 27.430447l39.811035 0l0 36.0l-39.811035 0z" fill-rule="evenodd"/><path stroke="#000000" stroke-width="3.0" stroke-linejoin="round" stroke-linecap="butt" d="m482.18896 27.430447l39.811035 0l0 36.0l-39.811035 0z" fill-rule="evenodd"/><path fill="#000000" fill-opacity="0.0" d="m482.0 -8.913385l40.0 0l0 40.0l-40.0 0z" fill-rule="evenodd"/><path fill="#000000" d="m498.96802 18.006613l-2.5625 0l0 -9.640625q-1.40625 1.3125 -3.3125 1.9375l0 -2.3281255q1.015625 -0.328125 2.1875 -1.234375q1.171875 -0.921875 1.609375 -2.140625l2.078125 0l0 13.40625zm12.469482 -2.375l0 2.375l-8.96875 0q0.140625 -1.34375 0.859375 -2.546875q0.734375 -1.21875 2.890625 -3.203125q1.734375 -1.625 2.125 -2.1875q0.53125 -0.796875 0.53125 -1.578125q0 -0.8437505 -0.46875 -1.2968755q-0.453125 -0.46875 -1.265625 -0.46875q-0.796875 0 -1.28125 0.484375q-0.46875 0.46875 -0.546875 1.5937505l-2.546875 -0.25q0.234375 -2.1093755 1.421875 -3.0312505q1.203125 -0.921875 3.015625 -0.921875q1.96875 0 3.09375 1.0625q1.140625 1.0625 1.140625 2.6562505q0 0.890625 -0.328125 1.71875q-0.3125 0.8125 -1.015625 1.703125q-0.46875 0.59375 -1.6875 1.703125q-1.203125 1.109375 -1.53125 1.484375q-0.3125 0.359375 -0.515625 0.703125l5.078125 0z" fill-rule="nonzero"/><path fill="#cccccc" d="m522.18896 27.430447l39.811035 0l0 36.0l-39.811035 0z" fill-rule="evenodd"/><path stroke="#000000" stroke-width="3.0" stroke-linejoin="round" stroke-linecap="butt" d="m522.18896 27.430447l39.811035 0l0 36.0l-39.811035 0z" fill-rule="evenodd"/><path fill="#000000" fill-opacity="0.0" d="m522.0 -8.913385l40.0 0l0 40.0l-40.0 0z" fill-rule="evenodd"/><path fill="#000000" d="m538.968 18.006613l-2.5625 0l0 -9.640625q-1.40625 1.3125 -3.3125 1.9375l0 -2.3281255q1.015625 -0.328125 2.1875 -1.234375q1.171875 -0.921875 1.609375 -2.140625l2.078125 0l0 13.40625zm3.7351074 -3.546875l2.46875 -0.296875q0.125 0.953125 0.640625 1.453125q0.53125 0.5 1.265625 0.5q0.78125 0 1.328125 -0.59375q0.546875 -0.609375 0.546875 -1.640625q0 -0.953125 -0.53125 -1.515625q-0.515625 -0.578125 -1.25 -0.578125q-0.5 0 -1.1875 0.203125l0.28125 -2.09375q1.046875 0.03125 1.59375 -0.4375q0.546875 -0.484375 0.546875 -1.28125q0 -0.6718755 -0.40625 -1.0781255q-0.390625 -0.40625 -1.0625 -0.40625q-0.65625 0 -1.125 0.46875q-0.453125 0.453125 -0.5625 1.3281255l-2.359375 -0.40625q0.25 -1.2031255 0.734375 -1.9218755q0.5 -0.734375 1.390625 -1.140625q0.890625 -0.421875 2.0 -0.421875q1.875 0 3.015625 1.203125q0.9375 0.984375 0.9375 2.2187505q0 1.765625 -1.921875 2.8125q1.15625 0.234375 1.84375 1.09375q0.6875 0.859375 0.6875 2.0625q0 1.765625 -1.296875 3.015625q-1.28125 1.234375 -3.1875 1.234375q-1.8125 0 -3.015625 -1.046875q-1.1875 -1.046875 -1.375 -2.734375z" fill-rule="nonzero"/><path fill="#cccccc" d="m562.18896 27.430447l39.811035 0l0 36.0l-39.811035 0z" fill-rule="evenodd"/><path stroke="#000000" stroke-width="3.0" stroke-linejoin="round" stroke-linecap="butt" d="m562.18896 27.430447l39.811035 0l0 36.0l-39.811035 0z" fill-rule="evenodd"/><path fill="#000000" fill-opacity="0.0" d="m562.0 -8.913385l40.0 0l0 40.0l-40.0 0z" fill-rule="evenodd"/><path fill="#000000" d="m578.968 18.006613l-2.5625 0l0 -9.640625q-1.40625 1.3125 -3.3125 1.9375l0 -2.3281255q1.015625 -0.328125 2.1875 -1.234375q1.171875 -0.921875 1.609375 -2.140625l2.078125 0l0 13.40625zm8.844482 0l0 -2.6875l-5.46875 0l0 -2.234375l5.796875 -8.484375l2.15625 0l0 8.46875l1.65625 0l0 2.25l-1.65625 0l0 2.6875l-2.484375 0zm0 -4.9375l0 -4.5625l-3.078125 4.5625l3.078125 0z" fill-rule="nonzero"/><path fill="#cccccc" d="m602.18896 27.430447l39.811035 0l0 36.0l-39.811035 0z" fill-rule="evenodd"/><path stroke="#000000" stroke-width="3.0" stroke-linejoin="round" stroke-linecap="butt" d="m602.18896 27.430447l39.811035 0l0 36.0l-39.811035 0z" fill-rule="evenodd"/><path fill="#000000" fill-opacity="0.0" d="m602.0 -8.913385l40.0 0l0 40.0l-40.0 0z" fill-rule="evenodd"/><path fill="#000000" d="m618.968 18.006613l-2.5625 0l0 -9.640625q-1.40625 1.3125 -3.3125 1.9375l0 -2.3281255q1.015625 -0.328125 2.1875 -1.234375q1.171875 -0.921875 1.609375 -2.140625l2.078125 0l0 13.40625zm3.8601074 -3.4375l2.546875 -0.265625q0.109375 0.875 0.640625 1.375q0.546875 0.5 1.25 0.5q0.796875 0 1.34375 -0.640625q0.5625 -0.65625 0.5625 -1.96875q0 -1.234375 -0.546875 -1.84375q-0.546875 -0.609375 -1.4375 -0.609375q-1.09375 0 -1.96875 0.96875l-2.078125 -0.296875l1.3125 -6.9531255l6.765625 0l0 2.390625l-4.828125 0l-0.40625 2.2656255q0.859375 -0.421875 1.75 -0.421875q1.703125 0 2.890625 1.25q1.1875 1.234375 1.1875 3.203125q0 1.65625 -0.953125 2.9375q-1.3125 1.78125 -3.625 1.78125q-1.84375 0 -3.015625 -1.0q-1.15625 -1.0 -1.390625 -2.671875z" fill-rule="nonzero"/><path fill="#000000" fill-opacity="0.0" d="m59.070866 56.727036l62.929134 0l0 51.716537l-62.929134 0z" fill-rule="evenodd"/><path fill="#000000" d="m69.82087 91.327034l0 -13.828125l2.109375 0l0 1.96875q1.53125 -2.28125 4.40625 -2.28125q1.25 0 2.296875 0.453125q1.046875 0.453125 1.5625 1.1875q0.53125 0.71875 0.734375 1.71875q0.125 0.65625 0.125 2.28125l0 8.5l-2.34375 0l0 -8.40625q0 -1.4375 -0.28125 -2.140625q-0.265625 -0.71875 -0.96875 -1.140625q-0.6875 -0.421875 -1.625 -0.421875q-1.484375 0 -2.578125 0.953125q-1.09375 0.953125 -1.09375 3.609375l0 7.546875l-2.34375 0zm23.887436 0l0 -2.03125q-1.609375 2.34375 -4.375 2.34375q-1.234375 0 -2.296875 -0.46875q-1.0625 -0.46875 -1.578125 -1.171875q-0.5 -0.71875 -0.71875 -1.75q-0.140625 -0.6875 -0.140625 -2.1875l0 -8.5625l2.34375 0l0 7.671875q0 1.828125 0.140625 2.46875q0.21875 0.921875 0.9375 1.453125q0.71875 0.53125 1.765625 0.53125q1.0625 0 1.984375 -0.53125q0.921875 -0.546875 1.296875 -1.46875q0.390625 -0.9375 0.390625 -2.71875l0 -7.40625l2.34375 0l0 13.828125l-2.09375 0zm5.715561 0l0 -19.078125l2.34375 0l0 19.078125l-2.34375 0zm5.922165 0l0 -19.078125l2.34375 0l0 19.078125l-2.34375 0z" fill-rule="nonzero"/><path fill="#000000" fill-opacity="0.0" d="m22.094488 63.430447l0 19.149609l36.97638 0" fill-rule="evenodd"/><path stroke="#000000" stroke-width="3.0" stroke-linejoin="round" stroke-linecap="butt" d="m22.094488 63.430447l0 19.149609l18.976377 0" fill-rule="evenodd"/><path fill="#000000" stroke="#000000" stroke-width="3.0" stroke-linecap="butt" d="m41.070866 87.53525l13.614292 -4.9551926l-13.614292 -4.9552z" fill-rule="evenodd"/></g></svg>